<mxfile host="Electron" modified="2022-07-14T00:41:24.330Z" agent="5.0 (Windows NT 10.0; Win64; x64) AppleWebKit/537.36 (KHTML, like Gecko) draw.io/18.0.1 Chrome/100.0.4896.143 Electron/18.2.0 Safari/537.36" etag="_B5Mm-5Qe7JGMSPAvR4H" compressed="false" version="18.0.1" type="device">
  <diagram id="ueueLfe9TmjLQEd5xkKl" name="Page-1">
    <mxGraphModel dx="1952" dy="888" grid="1" gridSize="10" guides="1" tooltips="1" connect="1" arrows="1" fold="1" page="1" pageScale="1" pageWidth="850" pageHeight="1100" math="0" shadow="0">
      <root>
        <mxCell id="0" />
        <mxCell id="1" parent="0" />
        <mxCell id="mDk10lRaXqg-SpX3seUj-1" value="AWS Cloud" style="points=[[0,0],[0.25,0],[0.5,0],[0.75,0],[1,0],[1,0.25],[1,0.5],[1,0.75],[1,1],[0.75,1],[0.5,1],[0.25,1],[0,1],[0,0.75],[0,0.5],[0,0.25]];outlineConnect=0;gradientColor=none;html=1;whiteSpace=wrap;fontSize=12;fontStyle=0;container=1;pointerEvents=0;collapsible=0;recursiveResize=0;shape=mxgraph.aws4.group;grIcon=mxgraph.aws4.group_aws_cloud_alt;strokeColor=#232F3E;fillColor=none;verticalAlign=top;align=left;spacingLeft=30;fontColor=#232F3E;dashed=0;" parent="1" vertex="1">
          <mxGeometry x="100" y="10" width="1970" height="1950" as="geometry" />
        </mxCell>
        <mxCell id="mDk10lRaXqg-SpX3seUj-2" value="eu-west-1" style="points=[[0,0],[0.25,0],[0.5,0],[0.75,0],[1,0],[1,0.25],[1,0.5],[1,0.75],[1,1],[0.75,1],[0.5,1],[0.25,1],[0,1],[0,0.75],[0,0.5],[0,0.25]];outlineConnect=0;gradientColor=none;html=1;whiteSpace=wrap;fontSize=12;fontStyle=0;container=1;pointerEvents=0;collapsible=0;recursiveResize=0;shape=mxgraph.aws4.group;grIcon=mxgraph.aws4.group_region;strokeColor=#147EBA;fillColor=none;verticalAlign=top;align=left;spacingLeft=30;fontColor=#147EBA;dashed=1;" parent="mDk10lRaXqg-SpX3seUj-1" vertex="1">
          <mxGeometry x="30" y="30" width="1510" height="1800" as="geometry" />
        </mxCell>
        <mxCell id="mDk10lRaXqg-SpX3seUj-6" value="&lt;span style=&quot;display: flex;&quot;&gt;&lt;span style=&quot;overflow: hidden; text-overflow: ellipsis;&quot; class=&quot;&quot;&gt;backend-vpc&lt;/span&gt;&lt;/span&gt;" style="points=[[0,0],[0.25,0],[0.5,0],[0.75,0],[1,0],[1,0.25],[1,0.5],[1,0.75],[1,1],[0.75,1],[0.5,1],[0.25,1],[0,1],[0,0.75],[0,0.5],[0,0.25]];outlineConnect=0;gradientColor=none;html=1;whiteSpace=wrap;fontSize=12;fontStyle=0;container=1;pointerEvents=0;collapsible=0;recursiveResize=0;shape=mxgraph.aws4.group;grIcon=mxgraph.aws4.group_vpc;strokeColor=#248814;fillColor=none;verticalAlign=top;align=left;spacingLeft=30;fontColor=#AAB7B8;dashed=0;" parent="mDk10lRaXqg-SpX3seUj-2" vertex="1">
          <mxGeometry x="30" y="40" width="1440" height="1540" as="geometry" />
        </mxCell>
        <mxCell id="mDk10lRaXqg-SpX3seUj-8" value="&lt;span style=&quot;display: flex;&quot;&gt;&lt;span style=&quot;overflow: hidden; text-overflow: ellipsis;&quot; class=&quot;&quot;&gt;backend-subnet-private2-eu-west-1b&lt;/span&gt;&lt;/span&gt;" style="points=[[0,0],[0.25,0],[0.5,0],[0.75,0],[1,0],[1,0.25],[1,0.5],[1,0.75],[1,1],[0.75,1],[0.5,1],[0.25,1],[0,1],[0,0.75],[0,0.5],[0,0.25]];outlineConnect=0;gradientColor=none;html=1;whiteSpace=wrap;fontSize=12;fontStyle=0;container=1;pointerEvents=0;collapsible=0;recursiveResize=0;shape=mxgraph.aws4.group;grIcon=mxgraph.aws4.group_security_group;grStroke=0;strokeColor=#147EBA;fillColor=#E6F2F8;verticalAlign=top;align=left;spacingLeft=30;fontColor=#147EBA;dashed=0;" parent="mDk10lRaXqg-SpX3seUj-6" vertex="1">
          <mxGeometry x="520" y="190" width="360" height="790" as="geometry" />
        </mxCell>
        <mxCell id="mDk10lRaXqg-SpX3seUj-20" value="" style="sketch=0;points=[[0,0,0],[0.25,0,0],[0.5,0,0],[0.75,0,0],[1,0,0],[0,1,0],[0.25,1,0],[0.5,1,0],[0.75,1,0],[1,1,0],[0,0.25,0],[0,0.5,0],[0,0.75,0],[1,0.25,0],[1,0.5,0],[1,0.75,0]];outlineConnect=0;fontColor=#232F3E;gradientColor=#4D72F3;gradientDirection=north;fillColor=#3334B9;strokeColor=#ffffff;dashed=0;verticalLabelPosition=bottom;verticalAlign=top;align=center;html=1;fontSize=12;fontStyle=0;aspect=fixed;shape=mxgraph.aws4.resourceIcon;resIcon=mxgraph.aws4.database;" parent="mDk10lRaXqg-SpX3seUj-8" vertex="1">
          <mxGeometry x="18" y="312" width="78" height="78" as="geometry" />
        </mxCell>
        <mxCell id="mDk10lRaXqg-SpX3seUj-22" value="backend-1" style="points=[[0,0],[0.25,0],[0.5,0],[0.75,0],[1,0],[1,0.25],[1,0.5],[1,0.75],[1,1],[0.75,1],[0.5,1],[0.25,1],[0,1],[0,0.75],[0,0.5],[0,0.25]];outlineConnect=0;gradientColor=none;html=1;whiteSpace=wrap;fontSize=12;fontStyle=0;container=1;pointerEvents=0;collapsible=0;recursiveResize=0;shape=mxgraph.aws4.group;grIcon=mxgraph.aws4.group_ec2_instance_contents;strokeColor=#D86613;fillColor=none;verticalAlign=top;align=left;spacingLeft=30;fontColor=#D86613;dashed=0;" parent="mDk10lRaXqg-SpX3seUj-8" vertex="1">
          <mxGeometry x="25" y="470" width="310" height="280" as="geometry" />
        </mxCell>
        <mxCell id="mDk10lRaXqg-SpX3seUj-23" value="" style="sketch=0;outlineConnect=0;fontColor=#232F3E;gradientColor=none;fillColor=#D45B07;strokeColor=none;dashed=0;verticalLabelPosition=bottom;verticalAlign=top;align=center;html=1;fontSize=12;fontStyle=0;aspect=fixed;pointerEvents=1;shape=mxgraph.aws4.t3_instance;" parent="mDk10lRaXqg-SpX3seUj-22" vertex="1">
          <mxGeometry x="20" y="50" width="48" height="48" as="geometry" />
        </mxCell>
        <mxCell id="mDk10lRaXqg-SpX3seUj-30" value="sgBakend" style="fillColor=none;strokeColor=#DD3522;verticalAlign=top;fontStyle=0;fontColor=#DD3522;" parent="mDk10lRaXqg-SpX3seUj-8" vertex="1">
          <mxGeometry x="10" y="440" width="340" height="330" as="geometry" />
        </mxCell>
        <mxCell id="mDk10lRaXqg-SpX3seUj-34" value="sgFrontend" style="fillColor=none;strokeColor=#DD3522;verticalAlign=top;fontStyle=0;fontColor=#DD3522;" parent="mDk10lRaXqg-SpX3seUj-8" vertex="1">
          <mxGeometry x="10" y="30" width="340" height="240" as="geometry" />
        </mxCell>
        <mxCell id="mDk10lRaXqg-SpX3seUj-10" value="frontend-1" style="points=[[0,0],[0.25,0],[0.5,0],[0.75,0],[1,0],[1,0.25],[1,0.5],[1,0.75],[1,1],[0.75,1],[0.5,1],[0.25,1],[0,1],[0,0.75],[0,0.5],[0,0.25]];outlineConnect=0;gradientColor=none;html=1;whiteSpace=wrap;fontSize=12;fontStyle=0;container=1;pointerEvents=0;collapsible=0;recursiveResize=0;shape=mxgraph.aws4.group;grIcon=mxgraph.aws4.group_ec2_instance_contents;strokeColor=#D86613;fillColor=none;verticalAlign=top;align=left;spacingLeft=30;fontColor=#D86613;dashed=0;" parent="mDk10lRaXqg-SpX3seUj-8" vertex="1">
          <mxGeometry x="35" y="70" width="290" height="170" as="geometry" />
        </mxCell>
        <mxCell id="mDk10lRaXqg-SpX3seUj-11" value="" style="sketch=0;outlineConnect=0;fontColor=#232F3E;gradientColor=none;fillColor=#D45B07;strokeColor=none;dashed=0;verticalLabelPosition=bottom;verticalAlign=top;align=center;html=1;fontSize=12;fontStyle=0;aspect=fixed;pointerEvents=1;shape=mxgraph.aws4.t3_instance;" parent="mDk10lRaXqg-SpX3seUj-10" vertex="1">
          <mxGeometry x="20" y="50" width="48" height="48" as="geometry" />
        </mxCell>
        <mxCell id="mDk10lRaXqg-SpX3seUj-33" value="" style="html=1;endArrow=block;elbow=vertical;startArrow=block;startFill=1;endFill=1;strokeColor=#545B64;rounded=0;entryX=0.5;entryY=0;entryDx=0;entryDy=0;" parent="mDk10lRaXqg-SpX3seUj-6" source="mDk10lRaXqg-SpX3seUj-34" target="mDk10lRaXqg-SpX3seUj-63" edge="1">
          <mxGeometry width="100" relative="1" as="geometry">
            <mxPoint x="546.875" y="970" as="sourcePoint" />
            <mxPoint x="487.556818181818" y="1030" as="targetPoint" />
            <Array as="points">
              <mxPoint x="430" y="340" />
            </Array>
          </mxGeometry>
        </mxCell>
        <mxCell id="mDk10lRaXqg-SpX3seUj-39" value=":80 and :443" style="edgeLabel;html=1;align=center;verticalAlign=middle;resizable=0;points=[];" parent="mDk10lRaXqg-SpX3seUj-33" vertex="1" connectable="0">
          <mxGeometry x="0.6749" y="-3" relative="1" as="geometry">
            <mxPoint x="3" as="offset" />
          </mxGeometry>
        </mxCell>
        <mxCell id="mDk10lRaXqg-SpX3seUj-36" value="" style="rounded=0;whiteSpace=wrap;html=1;strokeColor=none;" parent="mDk10lRaXqg-SpX3seUj-6" vertex="1">
          <mxGeometry x="358" y="460" width="162" height="150" as="geometry" />
        </mxCell>
        <mxCell id="mDk10lRaXqg-SpX3seUj-4" value="eu-west-1b" style="fillColor=none;strokeColor=#147EBA;dashed=1;verticalAlign=top;fontStyle=0;fontColor=#147EBA;" parent="mDk10lRaXqg-SpX3seUj-6" vertex="1">
          <mxGeometry x="510" y="150" width="380" height="1330" as="geometry" />
        </mxCell>
        <mxCell id="mDk10lRaXqg-SpX3seUj-3" value="eu-west-1a" style="fillColor=none;strokeColor=#147EBA;dashed=1;verticalAlign=top;fontStyle=0;fontColor=#147EBA;" parent="mDk10lRaXqg-SpX3seUj-6" vertex="1">
          <mxGeometry x="23" y="150" width="350" height="1330" as="geometry" />
        </mxCell>
        <mxCell id="mDk10lRaXqg-SpX3seUj-9" value="&lt;span style=&quot;display: flex;&quot;&gt;&lt;span style=&quot;overflow: hidden; text-overflow: ellipsis;&quot; class=&quot;&quot;&gt;&lt;span style=&quot;display: flex;&quot;&gt;&lt;span style=&quot;overflow: hidden; text-overflow: ellipsis;&quot; class=&quot;&quot;&gt;backend-subnet-public1-eu-west-1a&lt;/span&gt;&lt;/span&gt;&lt;/span&gt;&lt;/span&gt;" style="points=[[0,0],[0.25,0],[0.5,0],[0.75,0],[1,0],[1,0.25],[1,0.5],[1,0.75],[1,1],[0.75,1],[0.5,1],[0.25,1],[0,1],[0,0.75],[0,0.5],[0,0.25]];outlineConnect=0;gradientColor=none;html=1;whiteSpace=wrap;fontSize=12;fontStyle=0;container=1;pointerEvents=0;collapsible=0;recursiveResize=0;shape=mxgraph.aws4.group;grIcon=mxgraph.aws4.group_security_group;grStroke=0;strokeColor=#248814;fillColor=#E9F3E6;verticalAlign=top;align=left;spacingLeft=30;fontColor=#248814;dashed=0;" parent="mDk10lRaXqg-SpX3seUj-6" vertex="1">
          <mxGeometry x="38" y="1040" width="320" height="400" as="geometry" />
        </mxCell>
        <mxCell id="mDk10lRaXqg-SpX3seUj-24" value="" style="sketch=0;outlineConnect=0;fontColor=#232F3E;gradientColor=none;fillColor=#D45B07;strokeColor=none;dashed=0;verticalLabelPosition=bottom;verticalAlign=top;align=center;html=1;fontSize=12;fontStyle=0;aspect=fixed;pointerEvents=1;shape=mxgraph.aws4.instances;" parent="mDk10lRaXqg-SpX3seUj-9" vertex="1">
          <mxGeometry x="222" y="90" width="48" height="48" as="geometry" />
        </mxCell>
        <mxCell id="mDk10lRaXqg-SpX3seUj-5" value="eu-west-1c" style="fillColor=none;strokeColor=#147EBA;dashed=1;verticalAlign=top;fontStyle=0;fontColor=#147EBA;" parent="mDk10lRaXqg-SpX3seUj-6" vertex="1">
          <mxGeometry x="1000" y="150" width="380" height="480" as="geometry" />
        </mxCell>
        <mxCell id="mDk10lRaXqg-SpX3seUj-16" value="&lt;span style=&quot;display: flex;&quot;&gt;&lt;span style=&quot;overflow: hidden; text-overflow: ellipsis;&quot; class=&quot;&quot;&gt;&lt;span style=&quot;display: flex;&quot;&gt;&lt;span style=&quot;overflow: hidden; text-overflow: ellipsis;&quot; class=&quot;&quot;&gt;&lt;span style=&quot;display: flex;&quot;&gt;&lt;span style=&quot;overflow: hidden; text-overflow: ellipsis;&quot; class=&quot;&quot;&gt;backend-subnet-public2-eu-west-1b&lt;/span&gt;&lt;/span&gt;&lt;/span&gt;&lt;/span&gt;&lt;/span&gt;&lt;/span&gt;" style="points=[[0,0],[0.25,0],[0.5,0],[0.75,0],[1,0],[1,0.25],[1,0.5],[1,0.75],[1,1],[0.75,1],[0.5,1],[0.25,1],[0,1],[0,0.75],[0,0.5],[0,0.25]];outlineConnect=0;gradientColor=none;html=1;whiteSpace=wrap;fontSize=12;fontStyle=0;container=1;pointerEvents=0;collapsible=0;recursiveResize=0;shape=mxgraph.aws4.group;grIcon=mxgraph.aws4.group_security_group;grStroke=0;strokeColor=#248814;fillColor=#E9F3E6;verticalAlign=top;align=left;spacingLeft=30;fontColor=#248814;dashed=0;" parent="mDk10lRaXqg-SpX3seUj-6" vertex="1">
          <mxGeometry x="520" y="1040" width="360" height="400" as="geometry" />
        </mxCell>
        <mxCell id="mDk10lRaXqg-SpX3seUj-25" value="" style="sketch=0;outlineConnect=0;fontColor=#232F3E;gradientColor=none;fillColor=#D45B07;strokeColor=none;dashed=0;verticalLabelPosition=bottom;verticalAlign=top;align=center;html=1;fontSize=12;fontStyle=0;aspect=fixed;pointerEvents=1;shape=mxgraph.aws4.instances;flipV=1;" parent="mDk10lRaXqg-SpX3seUj-16" vertex="1">
          <mxGeometry x="33" y="90" width="48" height="48" as="geometry" />
        </mxCell>
        <mxCell id="mDk10lRaXqg-SpX3seUj-17" value="&lt;span style=&quot;display: flex;&quot;&gt;&lt;span style=&quot;overflow: hidden; text-overflow: ellipsis;&quot; class=&quot;&quot;&gt;&lt;span style=&quot;display: flex;&quot;&gt;&lt;span style=&quot;overflow: hidden; text-overflow: ellipsis;&quot; class=&quot;&quot;&gt;backend-subnet-private1-eu-west-1a&lt;/span&gt;&lt;/span&gt;&lt;/span&gt;&lt;/span&gt;" style="points=[[0,0],[0.25,0],[0.5,0],[0.75,0],[1,0],[1,0.25],[1,0.5],[1,0.75],[1,1],[0.75,1],[0.5,1],[0.25,1],[0,1],[0,0.75],[0,0.5],[0,0.25]];outlineConnect=0;gradientColor=none;html=1;whiteSpace=wrap;fontSize=12;fontStyle=0;container=1;pointerEvents=0;collapsible=0;recursiveResize=0;shape=mxgraph.aws4.group;grIcon=mxgraph.aws4.group_security_group;grStroke=0;strokeColor=#147EBA;fillColor=#E6F2F8;verticalAlign=top;align=left;spacingLeft=30;fontColor=#147EBA;dashed=0;" parent="mDk10lRaXqg-SpX3seUj-6" vertex="1">
          <mxGeometry x="38" y="190" width="320" height="780" as="geometry" />
        </mxCell>
        <mxCell id="mDk10lRaXqg-SpX3seUj-12" value="" style="sketch=0;points=[[0,0,0],[0.25,0,0],[0.5,0,0],[0.75,0,0],[1,0,0],[0,1,0],[0.25,1,0],[0.5,1,0],[0.75,1,0],[1,1,0],[0,0.25,0],[0,0.5,0],[0,0.75,0],[1,0.25,0],[1,0.5,0],[1,0.75,0]];outlineConnect=0;fontColor=#232F3E;gradientColor=#4D72F3;gradientDirection=north;fillColor=#3334B9;strokeColor=#ffffff;dashed=0;verticalLabelPosition=bottom;verticalAlign=top;align=center;html=1;fontSize=12;fontStyle=0;aspect=fixed;shape=mxgraph.aws4.resourceIcon;resIcon=mxgraph.aws4.database;" parent="mDk10lRaXqg-SpX3seUj-17" vertex="1">
          <mxGeometry x="222" y="312" width="78" height="78" as="geometry" />
        </mxCell>
        <mxCell id="mDk10lRaXqg-SpX3seUj-14" value="albJokes" style="sketch=0;points=[[0,0,0],[0.25,0,0],[0.5,0,0],[0.75,0,0],[1,0,0],[0,1,0],[0.25,1,0],[0.5,1,0],[0.75,1,0],[1,1,0],[0,0.25,0],[0,0.5,0],[0,0.75,0],[1,0.25,0],[1,0.5,0],[1,0.75,0]];outlineConnect=0;fontColor=#232F3E;gradientColor=#F78E04;gradientDirection=north;fillColor=#D05C17;strokeColor=#ffffff;dashed=0;verticalLabelPosition=bottom;verticalAlign=top;align=center;html=1;fontSize=12;fontStyle=0;aspect=fixed;shape=mxgraph.aws4.resourceIcon;resIcon=mxgraph.aws4.elastic_load_balancing;" parent="mDk10lRaXqg-SpX3seUj-6" vertex="1">
          <mxGeometry x="396" y="1040" width="78" height="78" as="geometry" />
        </mxCell>
        <mxCell id="mDk10lRaXqg-SpX3seUj-19" value="" style="html=1;endArrow=block;elbow=vertical;startArrow=block;startFill=1;endFill=1;strokeColor=#545B64;rounded=0;" parent="mDk10lRaXqg-SpX3seUj-6" source="mDk10lRaXqg-SpX3seUj-12" target="mDk10lRaXqg-SpX3seUj-18" edge="1">
          <mxGeometry width="100" relative="1" as="geometry">
            <mxPoint x="340" y="440" as="sourcePoint" />
            <mxPoint x="440" y="440" as="targetPoint" />
          </mxGeometry>
        </mxCell>
        <mxCell id="mDk10lRaXqg-SpX3seUj-21" value="" style="html=1;endArrow=block;elbow=vertical;startArrow=block;startFill=1;endFill=1;strokeColor=#545B64;rounded=0;" parent="mDk10lRaXqg-SpX3seUj-6" source="mDk10lRaXqg-SpX3seUj-20" target="mDk10lRaXqg-SpX3seUj-18" edge="1">
          <mxGeometry width="100" relative="1" as="geometry">
            <mxPoint x="261.07142857142844" y="458" as="sourcePoint" />
            <mxPoint x="345.9912471511034" y="590.0974955683832" as="targetPoint" />
          </mxGeometry>
        </mxCell>
        <mxCell id="mDk10lRaXqg-SpX3seUj-18" value="Maria" style="sketch=0;outlineConnect=0;fontColor=#232F3E;gradientColor=none;fillColor=#2E27AD;strokeColor=none;dashed=0;verticalLabelPosition=bottom;verticalAlign=top;align=center;html=1;fontSize=12;fontStyle=0;aspect=fixed;pointerEvents=1;shape=mxgraph.aws4.rds_instance;" parent="mDk10lRaXqg-SpX3seUj-6" vertex="1">
          <mxGeometry x="400" y="502" width="78" height="78" as="geometry" />
        </mxCell>
        <mxCell id="mDk10lRaXqg-SpX3seUj-26" value="" style="html=1;endArrow=block;elbow=vertical;startArrow=block;startFill=1;endFill=1;strokeColor=#545B64;rounded=0;" parent="mDk10lRaXqg-SpX3seUj-6" source="mDk10lRaXqg-SpX3seUj-24" target="mDk10lRaXqg-SpX3seUj-14" edge="1">
          <mxGeometry width="100" relative="1" as="geometry">
            <mxPoint x="348" y="551" as="sourcePoint" />
            <mxPoint x="410" y="551" as="targetPoint" />
          </mxGeometry>
        </mxCell>
        <mxCell id="mDk10lRaXqg-SpX3seUj-27" value="" style="html=1;endArrow=block;elbow=vertical;startArrow=block;startFill=1;endFill=1;strokeColor=#545B64;rounded=0;" parent="mDk10lRaXqg-SpX3seUj-6" source="mDk10lRaXqg-SpX3seUj-25" target="mDk10lRaXqg-SpX3seUj-14" edge="1">
          <mxGeometry width="100" relative="1" as="geometry">
            <mxPoint x="318" y="1129.9310344827586" as="sourcePoint" />
            <mxPoint x="400" y="1081.8620689655172" as="targetPoint" />
          </mxGeometry>
        </mxCell>
        <mxCell id="mDk10lRaXqg-SpX3seUj-7" value="sgMaria" style="fillColor=none;strokeColor=#DD3522;verticalAlign=top;fontStyle=0;fontColor=#DD3522;" parent="mDk10lRaXqg-SpX3seUj-6" vertex="1">
          <mxGeometry x="240" y="470" width="390" height="136" as="geometry" />
        </mxCell>
        <mxCell id="mDk10lRaXqg-SpX3seUj-32" value="" style="html=1;endArrow=block;elbow=vertical;startArrow=block;startFill=1;endFill=1;strokeColor=#545B64;rounded=0;entryX=1;entryY=0;entryDx=0;entryDy=0;" parent="mDk10lRaXqg-SpX3seUj-6" source="mDk10lRaXqg-SpX3seUj-30" target="mDk10lRaXqg-SpX3seUj-63" edge="1">
          <mxGeometry width="100" relative="1" as="geometry">
            <mxPoint x="563" y="1130.9565217391305" as="sourcePoint" />
            <mxPoint x="488" y="1090.195652173913" as="targetPoint" />
          </mxGeometry>
        </mxCell>
        <mxCell id="mDk10lRaXqg-SpX3seUj-40" value=":5184 and :7184" style="edgeLabel;html=1;align=center;verticalAlign=middle;resizable=0;points=[];" parent="mDk10lRaXqg-SpX3seUj-6" vertex="1" connectable="0">
          <mxGeometry x="519.9987304145106" y="990.0007457371717" as="geometry">
            <mxPoint x="-6" y="11" as="offset" />
          </mxGeometry>
        </mxCell>
        <mxCell id="mDk10lRaXqg-SpX3seUj-53" value="" style="html=1;endArrow=block;elbow=vertical;startArrow=block;startFill=1;endFill=1;strokeColor=#545B64;rounded=0;exitX=0.5;exitY=0;exitDx=0;exitDy=0;" parent="mDk10lRaXqg-SpX3seUj-6" source="mDk10lRaXqg-SpX3seUj-30" target="mDk10lRaXqg-SpX3seUj-7" edge="1">
          <mxGeometry width="100" relative="1" as="geometry">
            <mxPoint x="553" y="399" as="sourcePoint" />
            <mxPoint x="444.7361299052777" y="1050" as="targetPoint" />
            <Array as="points">
              <mxPoint x="700" y="540" />
            </Array>
          </mxGeometry>
        </mxCell>
        <mxCell id="mDk10lRaXqg-SpX3seUj-54" value=":30303" style="edgeLabel;html=1;align=center;verticalAlign=middle;resizable=0;points=[];" parent="mDk10lRaXqg-SpX3seUj-53" vertex="1" connectable="0">
          <mxGeometry x="0.6749" y="-3" relative="1" as="geometry">
            <mxPoint x="41" y="1" as="offset" />
          </mxGeometry>
        </mxCell>
        <mxCell id="mDk10lRaXqg-SpX3seUj-63" value="sgAlb" style="fillColor=none;strokeColor=#DD3522;verticalAlign=top;fontStyle=0;fontColor=#DD3522;" parent="mDk10lRaXqg-SpX3seUj-6" vertex="1">
          <mxGeometry x="380" y="1010" width="110" height="140" as="geometry" />
        </mxCell>
        <mxCell id="mDk10lRaXqg-SpX3seUj-66" value="BackendRole" style="sketch=0;outlineConnect=0;fontColor=#232F3E;gradientColor=none;fillColor=#BF0816;strokeColor=none;dashed=0;verticalLabelPosition=bottom;verticalAlign=top;align=center;html=1;fontSize=12;fontStyle=0;aspect=fixed;pointerEvents=1;shape=mxgraph.aws4.role;" parent="mDk10lRaXqg-SpX3seUj-6" vertex="1">
          <mxGeometry x="720" y="720" width="78" height="44" as="geometry" />
        </mxCell>
        <mxCell id="mDk10lRaXqg-SpX3seUj-41" value="&lt;div class=&quot;elb-KHH&quot; id=&quot;elb-dns-name&quot;&gt;&lt;span class=&quot;gwt-InlineHTML&quot;&gt;albJokes-2130109656.eu-west-1.elb.amazonaws.com&lt;/span&gt;&lt;/div&gt;" style="text;html=1;align=center;verticalAlign=middle;resizable=0;points=[];autosize=1;strokeColor=none;fillColor=none;" parent="mDk10lRaXqg-SpX3seUj-2" vertex="1">
          <mxGeometry x="315" y="1620" width="300" height="20" as="geometry" />
        </mxCell>
        <mxCell id="mDk10lRaXqg-SpX3seUj-43" value="" style="edgeStyle=orthogonalEdgeStyle;html=1;endArrow=block;elbow=vertical;startArrow=none;endFill=1;strokeColor=#545B64;rounded=0;dashed=1;" parent="mDk10lRaXqg-SpX3seUj-2" source="mDk10lRaXqg-SpX3seUj-41" target="mDk10lRaXqg-SpX3seUj-24" edge="1">
          <mxGeometry width="100" relative="1" as="geometry">
            <mxPoint x="480" y="1420" as="sourcePoint" />
            <mxPoint x="320" y="1220" as="targetPoint" />
          </mxGeometry>
        </mxCell>
        <mxCell id="mDk10lRaXqg-SpX3seUj-50" value="" style="edgeStyle=orthogonalEdgeStyle;html=1;endArrow=block;elbow=vertical;startArrow=none;endFill=1;strokeColor=#545B64;rounded=0;dashed=1;" parent="mDk10lRaXqg-SpX3seUj-2" source="mDk10lRaXqg-SpX3seUj-41" target="mDk10lRaXqg-SpX3seUj-25" edge="1">
          <mxGeometry width="100" relative="1" as="geometry">
            <mxPoint x="475.00000000000045" y="1630" as="sourcePoint" />
            <mxPoint x="324" y="1228" as="targetPoint" />
            <Array as="points">
              <mxPoint x="465" y="1420" />
              <mxPoint x="607" y="1420" />
            </Array>
          </mxGeometry>
        </mxCell>
        <mxCell id="mDk10lRaXqg-SpX3seUj-64" value="us-east-1" style="points=[[0,0],[0.25,0],[0.5,0],[0.75,0],[1,0],[1,0.25],[1,0.5],[1,0.75],[1,1],[0.75,1],[0.5,1],[0.25,1],[0,1],[0,0.75],[0,0.5],[0,0.25]];outlineConnect=0;gradientColor=none;html=1;whiteSpace=wrap;fontSize=12;fontStyle=0;container=1;pointerEvents=0;collapsible=0;recursiveResize=0;shape=mxgraph.aws4.group;grIcon=mxgraph.aws4.group_region;strokeColor=#147EBA;fillColor=none;verticalAlign=top;align=left;spacingLeft=30;fontColor=#147EBA;dashed=1;" parent="mDk10lRaXqg-SpX3seUj-1" vertex="1">
          <mxGeometry x="1560" y="30" width="300" height="630" as="geometry" />
        </mxCell>
        <mxCell id="mDk10lRaXqg-SpX3seUj-13" value="" style="sketch=0;points=[[0,0,0],[0.25,0,0],[0.5,0,0],[0.75,0,0],[1,0,0],[0,1,0],[0.25,1,0],[0.5,1,0],[0.75,1,0],[1,1,0],[0,0.25,0],[0,0.5,0],[0,0.75,0],[1,0.25,0],[1,0.5,0],[1,0.75,0]];outlineConnect=0;fontColor=#232F3E;gradientColor=#F54749;gradientDirection=north;fillColor=#C7131F;strokeColor=#ffffff;dashed=0;verticalLabelPosition=bottom;verticalAlign=top;align=center;html=1;fontSize=12;fontStyle=0;aspect=fixed;shape=mxgraph.aws4.resourceIcon;resIcon=mxgraph.aws4.secrets_manager;" parent="mDk10lRaXqg-SpX3seUj-64" vertex="1">
          <mxGeometry x="30" y="70" width="78" height="78" as="geometry" />
        </mxCell>
        <mxCell id="mDk10lRaXqg-SpX3seUj-69" value="DBSecret" style="sketch=0;outlineConnect=0;fontColor=#232F3E;gradientColor=none;fillColor=#BF0816;strokeColor=none;dashed=0;verticalLabelPosition=bottom;verticalAlign=top;align=center;html=1;fontSize=12;fontStyle=0;aspect=fixed;pointerEvents=1;shape=mxgraph.aws4.addon;" parent="mDk10lRaXqg-SpX3seUj-64" vertex="1">
          <mxGeometry x="150" y="50" width="78" height="40" as="geometry" />
        </mxCell>
        <mxCell id="mDk10lRaXqg-SpX3seUj-70" value="AppSecret" style="sketch=0;outlineConnect=0;fontColor=#232F3E;gradientColor=none;fillColor=#BF0816;strokeColor=none;dashed=0;verticalLabelPosition=bottom;verticalAlign=top;align=center;html=1;fontSize=12;fontStyle=0;aspect=fixed;pointerEvents=1;shape=mxgraph.aws4.addon;" parent="mDk10lRaXqg-SpX3seUj-64" vertex="1">
          <mxGeometry x="150" y="128" width="78" height="40" as="geometry" />
        </mxCell>
        <mxCell id="mDk10lRaXqg-SpX3seUj-68" value="" style="edgeStyle=orthogonalEdgeStyle;html=1;endArrow=block;elbow=vertical;startArrow=block;startFill=1;endFill=1;strokeColor=#545B64;rounded=0;" parent="mDk10lRaXqg-SpX3seUj-1" source="mDk10lRaXqg-SpX3seUj-66" target="mDk10lRaXqg-SpX3seUj-13" edge="1">
          <mxGeometry width="100" relative="1" as="geometry">
            <mxPoint x="1590" y="440" as="sourcePoint" />
            <mxPoint x="1690" y="440" as="targetPoint" />
          </mxGeometry>
        </mxCell>
        <mxCell id="J7UrNfXJZi3mGygWbqY1-35" value="jump-vpc" style="points=[[0,0],[0.25,0],[0.5,0],[0.75,0],[1,0],[1,0.25],[1,0.5],[1,0.75],[1,1],[0.75,1],[0.5,1],[0.25,1],[0,1],[0,0.75],[0,0.5],[0,0.25]];outlineConnect=0;gradientColor=none;html=1;whiteSpace=wrap;fontSize=12;fontStyle=0;container=1;pointerEvents=0;collapsible=0;recursiveResize=0;shape=mxgraph.aws4.group;grIcon=mxgraph.aws4.group_vpc;strokeColor=#248814;fillColor=none;verticalAlign=top;align=left;spacingLeft=30;fontColor=#AAB7B8;dashed=0;" parent="mDk10lRaXqg-SpX3seUj-1" vertex="1">
          <mxGeometry x="1440" y="770" width="220" height="310" as="geometry" />
        </mxCell>
        <mxCell id="J7UrNfXJZi3mGygWbqY1-36" value="jump-sub" style="points=[[0,0],[0.25,0],[0.5,0],[0.75,0],[1,0],[1,0.25],[1,0.5],[1,0.75],[1,1],[0.75,1],[0.5,1],[0.25,1],[0,1],[0,0.75],[0,0.5],[0,0.25]];outlineConnect=0;gradientColor=none;html=1;whiteSpace=wrap;fontSize=12;fontStyle=0;container=1;pointerEvents=0;collapsible=0;recursiveResize=0;shape=mxgraph.aws4.group;grIcon=mxgraph.aws4.group_security_group;grStroke=0;strokeColor=#147EBA;fillColor=#E6F2F8;verticalAlign=top;align=left;spacingLeft=30;fontColor=#147EBA;dashed=0;" parent="J7UrNfXJZi3mGygWbqY1-35" vertex="1">
          <mxGeometry x="30" y="40" width="130" height="130" as="geometry" />
        </mxCell>
        <mxCell id="J7UrNfXJZi3mGygWbqY1-37" value="jumpman" style="sketch=0;outlineConnect=0;fontColor=#232F3E;gradientColor=none;fillColor=#D45B07;strokeColor=none;dashed=0;verticalLabelPosition=bottom;verticalAlign=top;align=center;html=1;fontSize=12;fontStyle=0;aspect=fixed;pointerEvents=1;shape=mxgraph.aws4.t3_instance;" parent="J7UrNfXJZi3mGygWbqY1-36" vertex="1">
          <mxGeometry x="40" y="36" width="48" height="48" as="geometry" />
        </mxCell>
        <mxCell id="mDk10lRaXqg-SpX3seUj-47" value="" style="group" parent="1" vertex="1" connectable="0">
          <mxGeometry x="300" y="2000" width="610" height="495" as="geometry" />
        </mxCell>
        <mxCell id="mDk10lRaXqg-SpX3seUj-46" value="" style="fillColor=#EFF0F3;strokeColor=none;dashed=0;verticalAlign=top;fontStyle=0;fontColor=#232F3D;" parent="mDk10lRaXqg-SpX3seUj-47" vertex="1">
          <mxGeometry y="10" width="610" height="485" as="geometry" />
        </mxCell>
        <mxCell id="mDk10lRaXqg-SpX3seUj-45" value="" style="shape=image;verticalLabelPosition=bottom;labelBackgroundColor=default;verticalAlign=top;aspect=fixed;imageAspect=0;image=data:image/png,iVBORw0KGgoAAAANSUhEUgAABAAAAAQACAYAAAB/HSuDAAAABGdBTUEAALGPC/xhBQAAACBjSFJNAAB6JgAAgIQAAPoAAACA6AAAdTAAAOpgAAA6mAAAF3CculE8AAAABmJLR0QAAAAAAAD5Q7t/AAAACXBIWXMAAAsTAAALEwEAmpwYAAAAB3RJTUUH5gUNCTkhe3+j+QAAe8dJREFUeNrs3Xd8XGeZ9vHrPufMjLrcS+zYluWWOL130hvpEAJkaS8loS29Q+KShNACuyzLVpayu7C7QBKWEjosC6EtkJBeneYUd0szo5k557nfPyTbsiM7dqwykn7fz0eWNBqdGd8zozn3dZ7nORIAAAAAAAAAAAAAAAAAAAAAAAAAAAAAAAAAAAAAAAAAAAAAAAAAAAAAAAAAAAAAAAAAAAAAAAAAAAAAAAAAAAAAAAAAAAAAAAAAAAAAAAAAAAAAAAAAAAAAAAAAAAAAAAAAAAAAAAAAAAAAAAAAAAAAAAAAAAAAAAAAAAAAAAAAAAAAAAAAAAAAAAAAAAAAAAAAAAAAAAAAAAAAAAAAAAAAAAAAAAAAAAAAAAAAAAAAAAAAAAAAAAAAAAAAAAAAAAAAAAAAAAAAAAAAAAAAAAAAAAAAAAAAAAAAAAAAAAAAAAAAAAAAAAAAAAAAAAAAAAAAAAAAAAAAAAAAAAAAAAAAAAAAAAAAAAAAAAAAAAAAAAAAAAAAAAAAAAAAAAAAAAAAAAAAAAAAAAAAAAAAAAAAAAAAAAAAAAAAAAAAAAAAAAAAAAAAAAAAAAAAAAAAAAAAAAAAAAAAAAAAAAAAAAAAAAAAAAAAAAAAAAAAAAAAAAAAAAAAAAAAAAAAAAAAAAAAAAAAAAAAAAAAAAAAAAAAAAAAAAAAAAAAAAAAAAAAAAAAAAAAAAAAAAAAAAAAAAAAAAAAAAAAAAAAAAAAAAAAAAAAAAAAAAAAAAAAAAAAAAAAAAAAAAAAAAAAAAAAAAAAAAAAAAAAAAAAAAAAAAAAAAAAAAAAAAAAAAAAAAAAAAAAAAAAAAAAAAAAAAAAAAAAAAAAAAAAAAAAAAAAAAAAAAAAAAAAAAAAAAAAAAAAAAAAAAAAAAAAAAAAAAAAAAAAAAAAAAAAAAAAAAAAAAAAAAAAAAAAAAAAAAAAAAAAAAAAAAAAAAAAAAAAAAAAAAAAAAAAAAAAAAAAAAAAAAAAAAAAAAAAAAAAAAAAAAAAAAAAAAAAAAAAAAAAAAAAAAAAAAAAAAAAAAAAAAAAAAAAAAAAAAAAAAAAAAAAAAAAAAAAAAAAAAAAAAAAAAAAAAAAAAAAAAAAAAAAAAAAAAAAAAAAAAAAAAAAAAAAAAAAAAAAAAAAAAAAAAAAAAAAAAAAAAAAAAAAAAAAAAAAAAAAAAAAAAAAAAAAAAAAAAAAAAAAAAAAAAAAAAAAAAAAAAAAAAAAAAAAAAAAAAAAAAAAAAAAAAAAAAAAAAAAAAAAAAAAAAAAAAAAAAAAAAAAAAAAAAAAAAAAAAAAAAAAAAAAAAAAAAAAAAAAAAAAAAAAAAAAAAAAAAAAAAAAAAAAAAAAAAAAAAAAAAAAAAAAAAAAAAAAAAAAAAAAAAAAAAAAAAAAAAAAAAAAAAAAAAAAAAAAAAAAAAAAAAAAAAAAAAAAAAAAAAAAAAAAAAAAAAAAAAAAAAAAAAAAAAAAAAAAAAAAAAAAAAAAAAAAAAAAAAAAAAAAAAAAAAAAAAAAAAAAAAAAAAAAAAAAAAAAAAAAAAAAAAAAAAAAAAAAAAAAAAAAAAAAAAAAAAAAAAAAAAAAAAAAAAAAAAAAAAAAAAAAAAAAAAAAAAAAAAAAAAAAAAAAAAAAAAAAAAAAAAAAAAAAAAAAAAAAAAAAAAAAAAAAAAAAAAAAAAAAAAAAAAAAAAAAAAAAAAAAAAAAAAAAAAAAAAAAAAAAAAAAAAAAAAAAAAAAAAAAAAAAAAAAAAAAAAAAAAAAAAAAAAAAAAAAAAAAAAAAAAAAAAAAAAAAAAAAAAAAAAAAAAAAAAAAAAAAAAAAAAAAAAAAAAAAAAAAAAAAAAAAAAAAAAAAAAAAAAAAAAAAAAAAAAAAAAAAAAAAAAAAAAAAAAAAAAAAAAAAAAAAAAAAAAAAAAAAAAAAAAAAAAAAAAAAAAAAAAAAAAAAAAAAAAAAAAAAAAAAAAAAAAAAAAAAAAAAAAAAAAAAAAAAAAAAAAAAAAAAAAAAAAAAAAAAAAAAAAAAAACA4WGUAAAADCX/4cFScAt3VqNyNYoiz6LYM/OQRZnHkVmI5IqCKzK5ySW3KESRguQhBAtJYsFMIQ25UGixEE+eE/SDW1xfcpmxOwMAAAEAAAAY/Ib+nxZJbtazTs1eSye6hzZ3NcnVJFOju5okNZmpyd0bTdYs8yZJBZclkmKTJ5Jid0vMPJaUuCsxKZYkl6VmSl2eypWaKZWUultm5qnLUpNqLpUlFU0qyb3oUtFkJYtUDFIxkpXMomKSj7py7V5UULA33c+DCAAgAAAAAOPT2qsXqiUJURqUyENikRJF1qTgU+U2LcinST7VZNMkTXf5FLnaJDVLapRU6PvI7/B1bhj2N1xSVVKl30fPs7432yz5MyZ7yuVPmewpmZ6KInvag28IrjSSUosszWSppND6kQd5cgAACAAAAMDos3llh5pzFldqag3BW+VqlanNTNPcNddd8yTNNfN5kma4b23ikx0+RrNUUq3f55qkokxPm+spmT3i8ofM7CG5npFss8k2u0WbosNeXmp84TKmHQAACAAAAED98I/Nl3Jm1WKYUHPN8aA5Zpoj+RyXZss1U9JMk2a61Nq3X8C+QV/5JLlJG1z2hElPuPS4TE+Y60mZnjTT44pyj4SJEzZYqeQt77mDqgEACAAAAMDQqKzsVD6fV09PT5xJBcW5hsjT2SH4EpcWm/til/aVNFnSFEmT1HtEH3tRdkkbJa2XtMakR2R2p5nudIvuVghrJKvGOas2vLcWLHmUigEACAAAAMCeK13TIc8ppx5NdmmqSbPd/SCXDpPsQMmnSmpQ7zx8mv2h5+qdRtAjqWTSoy67w0x/lnSPXKst0jNxztaZVCt84CEqBgAgAAAAAAN0l585TIosLm3eNDOkYaGZL3RpkXnvUX5Jc9S74B7qT1XSapnulOxOc91jprvjxO4tnNi0QXdUxFkJAAAEAAAAjEPFa+ZLJnlQIZI3ZcHmy/04k45x+QJJMyRNU+8RfozCh1jSkyY94Wb3yPVbi+z3FtmjnmZlb51UlZm3vvP/qBQAgAAAAICxpueGBYob46j6THWqy/Zx0yJzP07ux7nUod5T7RV43x5zgvqmDci0Sq5fK4p+KdddJj2ey+XWFz54L1UCABAAAAAwmlU+c6jilpao+uTj87KgwyU/yFwHu3SQpNmSYqo0LqWSHpXZ7036o6Q/WRz/qeldX3hKDS0yO4wKAQAIAAAAqGflaxZIUhQ8NFgUTQ9pdoK7TpH8YEnzJE3kfRkDhAHPyLRKsttN+nls9uvMfY3FVpYUmj/MgoIAAAIAAABGnF+/SIrMSpXa5OA+z1yHSjpN8mPdNUW98/gjKoXdECSVTVrn0m/M9H3J/s+i6KFH735w85KjD5G97U9UCQBAAAAAwHAqXd8pyZpCNTtMwY9301FyHaneof2892IwuKSHzOxWyW+V9Ksozt8tqdL04fuoDgCAAAAAgKHQtWK+JJlJjZFsdgjZWTKd4a4DJc2SlKNKGEJlSY+Y6c8u+6FF0U/k/mSiqOySN171ABUCABAAAACwN7qv6ZCkJgWb667DJD/HXCe7fIp6V+0HhpNLqkh6Rmb/G8m+4/LfS/6IpErL1auoEAAQAAAAgN3V89FOFc5uUfk73TNC5i9w+UlyP1HSfpISKoQ6UpN0u5n9RGY/jRT/qhYqm9qXPUplAIAAAAAADKS4Yr68mMna4kYP3qmgCyQ/x11L1bt6P1DPXNLTZrpdsu8pjr+joMeaD7+oR11PyV76r1QIAAgAAAAY37qXd0qyWMpmS36Iyy6W++mSpol5/RidKpKeluz7Zvq2pD8F6XGTQuvVD1MdACAAAABgfOlZ2SGTCmnQwUF+plynSzpCUjPVwRjSLen3ZvY9k76Xa4rvCqlnDR94kMoAAAEAAABjV3HFPEmKPFiLTMdIfrm7jpc0T1JMhTCGVU16QLKfyPTvJr89trjkcm+86iGqAwAEAAAAjJXGv0MmMzff14OfINfLXTpeUpukiAphHAmS1pnpZ5J9TaZfNx8y8clQzjy+7DaqAwAEAAAAjD7VZfPk+bxySRyVe6qL3cO5kp/vrqMlNVAhQCVJ/9s7PcC+F0e5+4Jn3nTVA1QGAAgAAACofz3XL1RhYrNKz2xu8OD7y/1lMp3trgU0/sCAypLul/TfFkX/HkXR/Y0fur9WuX6JGj5wL9UBAAIAAADqT+maBZLUHLLsEEkvd/cLJc0Q8/uB3ZFJesTM/lMWfd09u0tSufXqVVQGAAgAAACoD5s/NF3WOi1vleIJkr/I3S+QNJvKAM+LS3pQZjeb2TeTKY2/zTb1pM2cOQAACAAAABgJxRXzZeWqQntTk6rpYR7C/5N0uqRZYmE/YDAESavM9H2L7EuKottLG9NyQ2usVs4cAAAEAAAADIfu5R2SrM2lIyR/hdzPlTSV9zxgyIKAZyT7VmT2FZP/UVKx6eqHqQwAEAAAADBEjf/KTklKJD/Og1+u3jn+06kMMGwel/SNyKJ/jRX9IchD09VMDQAAAgAAAAar8V/eIUmJmRZ78Ne6dImkfcVQf2AkBEkPSvqPyOzLIdiDZh5aljEiAAAIAAAAeJ66Hjtc9sey2R97Frn8xZK/yl2dNP5AXcgk3WNmX5D8xsZJbauyaur5d91FZQCAAAAAgN3sKv56Pz30o/s0+6g5s7JML5br5S4/gsYfqEupSb+S2VfjJP7GM48+s2b24tmK30kQAAAEAAAA7IRfN09au0qlqYtavVY7X64r3f0wSc1UB6h7XZJ+a5F9zqLoh03vOKO7/Dc/UdP77qMyAEAAAADANt0fmiu1xzkrh+PcdaVLL5TUSmWAUWejpJtk9ve51vj3nnra+F4WCgSA4cJwSQBA3ap99QgdLUkN0UIv+7Lg+pJLL6X5B0atCZJeLfcvp13p+7wS5j715n2V3tBJZQBgGDACAABQlzasXKScpxPlusQ9vEHSoZJyVAYYM3pk+r2Zfc5k33H3rparOVsAABAAAADGje7l8yVZkywcJ9eb3P1sSY1UBhizuszsZsn+IQT/jZmqrZw2EAAIAAAAY1dp5Tw1TsxUWp/M96ArXH65pFlUBhg3HjKzf7XIvhAK4ZG4FKtpGesDAAABAABgDDX+nYqjSMG9Kcuyc+T+LpeOlJRQHWDcSSX9MrLoU1EU/bDBo55upWq96iEqAwCDgEUAAQAjKq7VVKvVDsiy9JPu/o8uHUvzD4xbiaQXBA//kmbpNd2qLWz50N+q/JVzqAwADAJGAAAAhl3XivmSuyS1mfQid3+TpMN5XwLQTybTrbLoc6boZsnLFlzNyxgNAAAEAACAUaF8zQJJSjL3pR7Cu+V+vqR2KgNgJ9aa7L8U6TMe2YNyZa0fIQQAAAIAAEDd8ltP0+Zv3qOoLT/Bgi5z6Z1yX8h7EYDdECS7XWafjpP4xlJX1jVxWqz4nfdTGQAgAAAA1JOuZZ2SEkVW2989vNulS8RRfwB7bqPM/iMy+3Qu5/dWKqZWpgQAAAEAAGDkVa47QLVaSXGca0jT6vmSv0/SYbz/ANgLmaTfmEUfS+L8LXGoVUuWU/tH7qEyAPAcOAsAAGDIdGVVmTQ/y6rXSP55sdAfgL0XSzrOPfxTmlY+WHGfHYcqVQGA3cBOGABgUPmXD1V5VVFxFCe1UDnVg79H8lNF6Axg8FXN7Ltm+mRDc3RrtSeEhpYG2dvupjIAMADOswwAGFTdj2yUuU/OMnu9XG+SfF+qAmCI5N39QkkHlLuzT7r01e6N5c2UBQAGxggAAMCgSD/eqXiqW+kx299D9gGXXiypQGUADJNuM30tiuyGBtXuqSrxho+soioAQAAAABhMXSs6ZFLi0tlyfUjuR4kh/wCGXzDp1zJb6WY/kBRar+IsAQBAAAAAGBSl6zolqT3Uwuvd/W2SZlMVACNslcw+mSTxl0K50t10/gmyo79KVQAQAFACAMDzUbymQ/nErVKLFiv4e939MklNVAZAnegysy8rsk82hydWddu+ar3qAaoCgAAAAIA9Uf3CwXJXVHti8+ly/7C7jhdD/gHUn0yy75vZyuYFM39TfXqjF955J1UBQAAAAMBzNv6fWqKsVFGURE1pNbwquL9HUgeVAVDHXNKdFkXXJYl9sxKiSrNVlHzoUSoDYNzhNIAAgN1W3lRWnCTTs2p4h7tfKamdqgCocybpAA/hb7KaLYwV/r5H8dOUBcB4/YMIAMAuFZfNl+IguS1214f75vvnqAyAUaYi6atRZNdVn6rc33xQq/JX3ktVAIwbzNcEAOxS6doFatqnzeTRiSH437n7y2j+AYxSBUmXB/fP52c2Hp674h75Vw+nKgDGDUYAAAB2qnztAsnUkNWyC919haRFVAXAGPFni+z9IUp+aPJa64c5QwAAAgAAwDjUtaxTZi5J7ZK/Xq53uXwGlQEwxvaEHzaza036N0k9zVc9TE0AjGlMAQAAPIt7JsmnuYdl7n4VzT+AsfnHTh0e/HoPeo8nuQndH11MTQCMaYwAAABsp7hyviR1ePDl7v5SMd8fwNhXluzLcWzXpRsqj+bntqrhbfdQFQBjDqcBBABIkrqvXyJ78mG57ACF7Dp3ncP7BIBxolHy14TgM6IJ+Q9kG0t3UxIAYxEjAAAAqn5iiSyOrNpVPsrdb3DpGDFNDMC43Du2n0emd1pT/o+qpt70wQepCQACAADA2FBavkCRoiRT7czgfr2kA6kKgPGdAei3kr3fY/3cgkILiwMCIAAAAIx2XSs65Ga5KPhL5L7MpQVUBQAkM90u2fvNou9LWWi+ahVFAUAAAAAYnbqXd0hSg7teLflVkmZSFQDYzv1m+pBbdJPca61XMxIAAAEAAGCU6Vo+T5KaJV0h1wckTaEqADCgxxTZSiXJlxRCtfXDrAkAgAAAADBKdC/vUJRvaAzVnre5+7to/gHgOT1tZh/NJ/Hfm1lP7oP3UxEABAAAgPpWWtkpSW1ZCG+X+zsltVMVANgtG032iSRO/trduxuveoCKACAAAADUp2LvnP92d73f5W+R1EJVAGCPbDbZp5JC/pNpqVxqWfkoFQFAAAAAqC9dyzqUFKIJaTV8WO5X0PwDwF6EAGafKDTkbjCLSsl776EiAAgAAAD1obxygSSbkmXpVS5/vaQGqgIAe6XLIvtEksSfdvfuxg+xMCCA0SGiBAAwNvmdn1T3sn0VIk3MAs0/AAyiVg/+7jTN3mVJ0tx99RwqAmBUYAQAAIxR3cvmKUkKrWlavdrlb5TURFUAYFBttsg+USjkbjCzUvLee6kIAAIAAMDwKl0zX5LaQurvd/nbaP4BYMh0mfWbDvBhpgMAqF9MAQCAMaZ7xXwFV2vI/D0ufyvNPwAMqVZ3f3eaZu9UIWksXt1BRQAQAAAAhqH5X96hqKnQoOBvd/e3itX+AWA4tLn7O7NS9cp4YpKr/M0iKgKgLjEFAADGiK5rlkiyJst63uruH5DUTlUAYFitkdmHrLnpi6qltZYPsCYAAAIAAMAgK66YpyhSQ5rqSkkfkTSJqgDAiHhc0vvj2L8WgmUtV6+iIgDqBlMAAGDUN/8diqM4yjJdKum9NP8AMKJmS1oeQnROlI+seyWnCARAAAAAGATVlfupELVEWRbOlbRS0kyqAgAjrlPy60PVT26Y3GCla+dTEQAEAACA5692/RLlP3K3ekLxJJd/zF1zqQoA1Ad3LZX7xytrq8f84VdF9VzL2QEAjDzWAACAUah43UL5pqKspfFQD+Hz7n40VQGAetzZtl8oit7olcqdrdc+TkEAjChGAADAKOS1VFFTYZFn4VM0/wBQx3+v5ScqZB+LCvm5xRVMBQBAAAAA2APF5R0yaW5w/6jLT6YiAFDvIYDOdg9XuWxqNyEAgBHEFAAAGCW6r1ksT2uS2SR5uFby10rKURkAGBVKMrshsug6dy+3XP0QFQEw7BgBAACjRVZVnKhgHt4k+ato/gFgVGmS+1vdw6uUi5Ou6xZREQAEAACAZyt/apGS9nwcQniZy98pqZGqAMCo0+7Sh72Wnt+SpFa5hjMDACAAAAD0U71hqdb94X5lm6une9CHJU2kKgAwSrnPkvvyUo8f+0ypS7VrGAkAgAAAACCp65r9VVn3tNoXdR4agq+U1ElVAGDUOzC4PjapsW1JqadCNQAQAAAAJGVlKd86R56tkHQkBQGAMcL9+JD5ijgfz+TMAAAIAABgnCuunK8otokmf6/kZ1MRABhTTPIL5P6WJPbm8krWAwBAAAAA41L3NfPlieU9hCvc9WpJCVUBgDGn4O5XpqkuS5PmqHvFAioCgAAAAMaTrpWdyponmFf9PA/6S0nNVAUAxqxJ7v5Bq5VOrFaKVAMAAQAAjCfmQXHXhgNN4cOSZlIRABjzOj34VblCY2fXCtZ6BUAAAADjQnHlApnFMz3oKncdQkUAYLzwk839/ZImdrEoIAACAAAY27qXz5N72uRZ+lbJz5NkVAUAxs9+ubu/TB7eELnnupezKCAAAgAAGJvN/4oOxfnY3HWJS6+XVKAqADDuNMv9bS6d27ywJv+rGVQEAAEAAIw17qa06keb6yOSplARABi3Zkp+dfn+3MHljY1UAwABAACMJcUV8xWZ5kl+tUuLqAgAjG/uOjRI7/UomlpcyXoAAAgAAGBM6F4+Xy5rCsGvlPtpVAQA0BsC+IUewisiU1JcwXoAAAgAAGB0N/8rO9Q8KScpvFDy10nKURUAQJ9myd8Rgp9UraRUAwABAACMbqbSptpSD/4BSZOpBwCgP3fNdteHcoV8R3FFJwUBQAAAAKNRccV8mWuiZ/4uSQdTEQDAwCGAn6gQ3hRczV3LWQ8AAAEAAIyy5n+BcnEhdve/cPdL+VsMANiFnMtfE1m4qGViu5WuYSQAAAIAABgVSss7Vax1q1rrOd7d3yaphaoAAJ7D5BD8fcUNGw+qVVkPAAABAACMCiGWmgrN0938fZI4jAMA2F0HSP7efCGeWL6Wtw8ABAAAUNe6l8+TZVlOafYmuU6nIgCAPWDuuiBNdXnDjCVW+uj+VAQAAQAA1GXz/8kDFYpdCmanufQaSXmqAgDYQy2SX1lcffcRtWJZPR9jUUAABAAAUFeq13fIu7tlzW0zFfytkvalKgCA58V9qYK/Nclba9rj1AMAAQAA1JNaVcolFpv0aklnUBEAwN5lAH5JcL8sf9QpVvnuqykIgN2WUAIAGOo9NVOW6Ti5rpSUoyAAgL3ULPlbK7/72e8k3UY5AOwuRgAAwBAqrpgvRZoePLzD5XOoCABgULgOVAhvkqu9a3kH9QBAAAAAI6l0zXwljVHswf9C0tlUBAAwiEzSZZF0fsukSVZeyakBARAAAMCI6Fq5QKFSUbUcjnL3KyU1UhUAwCBrDx7eWVy/fnGaZVQDAAEAAIyEOJasobFZIbxF0gIqAgAYIgfL9cZ8oTVf+ejBVAMAAQAADKfyvxyjyv2Py9PsEknnUREAwFDuz7v80lqleEZp8zplnz6QigAgAACA4ZI9+rRyHTMXuOsKSW1UBAAwxGbK/A35pvyMnq4i1QBAAAAAw6Fr+Xy5JXkPulzyo6kIAGA4uPsZHvyiOJ9ExRXzKQgAAgAAGEqlazuVVWoypYdL/hpJCVUBAAyTRne9OavWFmRZoBoACAAAYCiFKFLS0tDqrr+UNJeKAACGl+/n7m/MN0aF8scYBQCAAAAAhsSmlUsU9ZSlWnqB3M+lIgCAERC768W1ir8gLQeVPraIigAgAACAQd/jyqoKUX6Bu79RLPwHABg5s+V+hUU2LeupUQ0ABAAAMJiKKzqV5JNE8pdIOoqKAABG2FlynV9oa7Xiyk6qAYAAAAAGQ+2G/ZVVqsqydIncXykpR1UAACOs2d2vTIulWVmaUg0ABAAAMBgqXlHcns958Ne6xGRLAEC9OChk2SsamidY5foDqQYAAgAA2FteDArlcJS7XyrJqAgAoE7kJX9Ztdy1tFYtUg0ABAAAsDfK13YoSazFXK+TNIuKAADqibuWSv6yQj6XK1/DWgAACAAA4HnpWblQPdWa0lo43eXnUBEAQD3u67v7SyqV6mHVWqqelQupCEAAAADYU2lIlYtzUyS9WtJ0KgIAqFML3P2VcRQ1pIEFAQECAADAHikun6/mfLvkOlOu06kIAKDOvUjyo0NwKgEQAAAA9kghp6IXp7h0paRmCgIAqHPTXboiKeRaStcxDQAgAAAA7BZ3V7bxGXktvVjuh1ERAMDoeAPT6V5Lz0xLNfnfEgIABAAAgOdUXLlAUdOk2ZJeIo7+AwBGj6nuujQpRJNKazOqARAAAAB22fx/bIkqjz0ul58l9+OoCABgNHH5WcH9mKy7rOL1iygIQAAAABhwp8ldoVRSYd/Z+yiEyyU1URUAwCgz0V2vitpbW0KlRjUAAgAAwECK13QqN3GiuYczJB1LRQAAo5L7acrSYxQCtQAIAAAAA7F8XmmpNFnur5XUQEUAAKPUZA/hNUmhubF83f5UAyAAAAD05363smeekNfSiyQdSkUAAKPcyaFaPilUy1QCIAAAAPTXvfJcWfuUfeR+qaQWKgIAGOX2cfmLLIlaiivmUw2AAAAAIEk9K+YpTU0WdIqY+w8AGCNcOi+k4bCQubqXd1AQgAAAAJC5KZ/4JJlfJKmVigAAxoiZLr1MZg3uFAMgAACAca60okO1ECTXIZJOpyIAgLHFz7dIi0UCAIwbCSUAxobix+dLkUwVa/TUCyYvuKwgecHleZMl7opMiiSPXBZLcpOCy4NkmZmC3GtmVnGzikyVyKJKHEU9+clpVeVI9vYHxk1Ns/ZISdEKoRpeIamdZxkAYIyZruAvjVt1e/Fj87z5fauoCEAAAKBe+PpH1XPtPEVzj06yzc9MDyHsY0HT3DQ1lHyqTFPkYZKkVpdaJG+R1CypxeV5SbH3vu4TyRNJ7lIqKZU8dVcqqUfu3e7eLVN3Ju/O0nRz7Smtk3xN1/KOdSatldnTHker1ejrlCmoOFWty349tgq+yeWug9V79N94BgIAxlov4NJZWSn6gqT7KQcw9rFDC9Sh0vWLFefzVisW8wpeiCyaEBSWyH2JZAvlPt+lqZImqHdeequkRg39tJ5UUlFSt6TNkjZK9rSkB2X+QGS6N4qi+7LMu0zWk4tUzVxqvOqhUfcYVK8/ULm2qVH3Mw9/XPJ3iClTAICxqcfM3lMt+980T4hUeP9DVAQYwxgBANRL03/tfMmsEGpheqhUZ4dKdaFLB8t1cPBssUttkvLqPZI/UuFdot6h8O2SZvVe5JKUyVULrqqHsMlld0vhtqrbbZIe6l7R8UQUxU/LvdL0kQdHRwBQLaq6tniQ5GfS/AMAxrAGdz8v36gba5XwBOUAxjZGAAAjpHb9PPVUEsWxt4QsHODygyQdINeBkvZX7xH+0f4adUlrZLpLstsl3WGyPyc5uyty21yxVK0fXFV3d7p4zXwVmvNReXPl3XK/TlLMMxYAMIZ1mekVPWm4uTkXq/Gqh6kIQAAAYK864S/vp6du3qC2Q5pyHtQq037ycJq7jpe0QNJM9Q7jH8tKkp6UtEqmWyOzH3mU3KFQ68rHhWoaUo30CAH/xH4qlsoy2Wx3/w+XjuPZCwAYB/7dTK+Xq9SybBXVAAgAADyvhvKGhVKsqLgpTHMPS0x+itzOcvliSS0av1NxetcTMN0v6cdm0c9MdkcUxU9KnjV+eGTWIiot79S6bLUmxTNeFNz/TVKBZzEAYBx0BWsis/ND8N+0EgAABAAA9qDpXzZPaSGSXIVK6ofLdXLvkX4/WtJkKjSgLsl+K/P/NdnP45z9LljWnXhBhQ/eN2x3Ivu3/VVZXS1kpewrcr+UhwUAME4ESZ9taZv0TmVpsPfcTkUAAgAAu1JaOV8mT7KgyXI/SdKLXDpK0mxJOSq0ez24pCfNdLtk37Io+q6ZnpJ7rekjQ78ycfeK+ZLrKPfwjb7HDQCA8eL2KLKXSrq7mXUAAAIAAM+2yl+hKR/+H4XGJB8F31/uZ8r9Upf2k9TE62yv9JjZw5K+IdMtURTd0fThBzf1fHSxGj5w76DfWO2aRUo6D1f3vb++VvL3icX/AADj7H1XpndVs9rftuVblPvwvVQEIAAAIEld185T3iK5qSGt+pGSX+SuF0paKE4bNxSekNmPJd1o8p9K2hS51DSI8xSLyzslU2cI2ZfF4n8AgHHZHNjXoyi60t3XNV/9EAUBCAAAdC/vkMwaXX6kub/OXSdJ2pfGf8i5pLWSfiPTVyzK/Sg23ygpNH74gb3acOX6g1Tc/JTyheZXuPvfa+yfkQEAgIE8E1l0SZZlv2xoaVb+vXdREWAMSSgBsCeN/zxJnjfT4e5+ubm/xKUpIkwbLiZpqqTz5DrFs/TXWWT/4tKPNl81+2mLc2q9+vnNWaxVu1VoaJ0YPJxH8w8AGMemufzsXJL7ba3cU6McwNjbmQbwHLKPHaAoyUWl4qYD3P1yd3+xpPlUpi50S/qJRfavsugHkjZ5JrUue3D3N7BivjzLZFF0tLv/d1/IAADA+GwQTLdZHJ/tWfZUy9WrKAgwhjACANiFrhXzJLO4p1Le18vFV0r+EpeWiMXh6kmLpAs8+PFS+LlF+nxk/svuZfPKLbu7PoC7ojiO3f1scZpGAMA4565OZX6yu75GNYCxhREAwAC6V3aqNmuTco9P2Mc9u1jub1Dvqv6cyq/+/6itk9m/K7IvmofbXZa2PMepjIof30+eppNUq93iriOpIgAA9rVc7K+WVGn4yCrKAYwRjAAAdpB+YYmyUkj8sbbTpOxtcj9FUgOVGR1cmiz3tyj4qS77UqTo37uXdT4RxVLTRwaeFuClHkk63pnWAQDAlnfHw7Ngh0j6DbUAxg5GAAB9upfPk5sscu3r0uvc9Wr1ruyP0asi6RcW2aeV2E9SCz25LFLzh7ed1qjn+oNUmDTfup+87a/l/hZKBgCAJCmY6QPrHq58fObSJuXf8yAVAcYATlkGSOq6ZoE8TppMdp67vuKuD9D8jwkFSad58C95LaxIqragqT229GOdW6+QVrtVfOr2xXIdTbkAANjWJ7jrpMkdDTOqpUA1gDGCEQAY17KPztdP7qzpuIXJguC6QvJXSppGZcbmw22mX5vZ30jRTZL3NCWR1pdrakiiy4P7P0hqokwAAGy1JrL44rRW/WXb5Mmyd/yJigCjHCMAMG51L+tQueqNxy6MX+zuX5H8L2n+x7TYXceH4H/tHq7xSLMfeOApFXJxi7tOpvkHAOBZprr8hHxTU1zq6qIawBjAIoAYd8r/dIRq9zwuxTZdmb/FpTdJmkRlxtHOjPvbLdWhM+dO/ajcn3H56ZQFAICBhHPd079zD5uoBUAAAIwq1RvmqdiTKtfadIAy/4jLLxAr/I9HsctPlavDTHdImk1JAAB4Nnct9cyXSvoV1QBGP6YAYNzoWj5PlS7lcus2niuFL7j8JTT/416Hu84XYSgAADvT7sHPStcU5X84i2oAoxw7vRgXiivnSRa3ewiv9eDvEEd8AQAAdrdfOKlhZuvkyvceWEc5AAIAoG6Vls1TZrE8eIc8e49Lr5TUTGUAAAB2j8sXpmk4QtL3qQYwujEFAGNW8dolarz6YZn8KPfweZdeT/MPAACwx2ZJfkxy1WvV/dFOqgEQAAD1pyEvFVfMP9U9fF7SmWLECwAAwPPjOi5b8c/7WDVQC2AUM0qAsSa7bqmipCkq9qw9x4N/TNJSqgIAALBX1kSRXRCy9NctbbNk7/o1FQFGIUYAYEwpXtOpHqvFxZ61l3rwv6L5BwAAGBRT3HVYId9upe41VAMgAABGVun6RbI4alC19hoP/hlJTFIDAAAYHObup1ZrxUZ3pgEABADACOpauUBZLTRn1eyK4P5RSTOoCgAAwKA6PDKbShkAAgBgxBRXdCjy0Gwhe4fcl0maQlUAAAAG3eQgP9rlVAIgAACGX+m6+VJsjR78ze7+fsknUBUAAIAh0SL5C1ouO1P+KZZZAggAgGHUs7JDSfC8p/4ql79PUjNVAQAAGDIm2UE93/jxjJ5yD9UACACA4dF9zXxlDVFcDbrM3a+WNImqAAAADC1378iycFCWsRAgQAAADJPm0CKVwgUe/Fqx4B8AAMBwmSX3Q7xcVvd1i6gGQAAADJ3aPy7R3XGikrrP7Fvtf1+qAgAAMHzc7GBraZ6gLKUYAAEAMDS6P7FYxR89qNnL5pwQQrhe0mKqAgAAMNwJgB+kNMxQxtkAAAIAYIikxYqS/WcdoCx8XNKhVAQAAGBELPDIZodKRcVPH0g1AAIAYHAVV8xXLoqmSvYhScdQEQAAgBFTkPshUVtjHLq7qQZAAAAMnp6VC5SL4kYP/hZ3v1iSURUAAIARY5KO8VooiJMBAAQAwGDpunaBqi0NUTVkl7r8jZIKVAUAAGCEuQ6OFLVxVAYgAAAGTSj3KOoqHuUe3i9pKhUBAACoiwRgsjzsL7EQIEAAAAyC4opOJfnCHHdfLtd+VAQAAKBuNLt0FDMzAQIAYO+b/5WdktkE9/A+uU6lIgAAAHUlL4sOz2eVpOfqfakGQAAAPD/dKzqkyBMP6eXufrmkhKoAAADUF5fNT6cs7AiTOigGQAAAPM83k1pFIehQl94hqZ2KAAAA1GH7n2tcoOYpR6hlCuUACACAPVda2aE4X5ioLLxbrk4qAgAAUK8ZQNZm+aYDG//fNyJ3FgMECACAPZB9cj81nnmcueulks6hIgAAAPXK5NWSoun7nStpsSQRAgAEAMBu6V4+V+ViRcVbfnVYCP5GSa1UBQAAoI55kLVMPVDSKyTlKAhAAADsniBZzlolf4ukAykIAABAXXf/sqRB1tAaSXqNpFOoCUAAAOyW5kKDVAsXuetFVAMAAKDe+3+XmibIWmdI0gxJH5C02N2ZCgAQAAA7V1wxX6W0tr/L3ymG/gMAAIyCACAoapupaOqCLZecKGmZpH178wFCAIAAANix+b+2Q5bzxuB+hbsOpiIAAACjoYtIFM08QNY+a8slsaRLJV0naQEFAggAgO2kH12kak+mUNWxcr9EklEVAACAeueyhjYli07f8QexpJdJ+qykU909x5QAgAAAkCSVK6mSJNfqrldJmk1FAAAARkkTMXWBotmHDvSjWNJZkr4saYWk+ZISQgCAAADjXKU7lVk4QfILqQYAAMAoYZGS/c6RNex06SaTNEvSeyR9ve/zC9x9irsbYQAwchJKgJFQvm6h5GrP0vRKSe1UBAAAYBRwV9S+j+J5R0v2nMcSY0mH9n08Jul2SQ9JutvdH5T0lKSnJW2SFCRtSwZKj8tX/8J83V3y8lp5Zb2UlqW0JIVMkpms7+pukm37XZf7lh+b5LLeLbu7R4oUYnmUjzzqnORqyslm/xuPKwgAgKHS/fH9lW3eJOVy57nrRCoCAAAwWgKATHHHsbJJHXv6m/v2fUhSSVKXpJ6+j3Lv996lysayb7zPfe2fCr75oWaV1xS8VsopLSfKqib30BcsWN+HXO4mq0ledakmqSr3qktVee/lclVdqgR5lwdtCD3Z+nDnmg2SNtRuPG29pG4p1CRP5aopskpkcU9WKFRkCvmzvsNjDwIA4Hnp6ZEKDbMUwiskn0hBAAAARkPz77KGdsUdx8kKLXuzpaa+j+03v+4OhYdukq/5g7zWLbmrd1CA940N6D91wLf7dmfTCnzb9XxLWND7z9YRBy5lblLFZZvUOxpho9zXBM9Wq1xaba6nqjeevM6kDWbRBsk2uPuGJDSVZanbJbfw3AABADCQruWdCskks9rac+TO0X8AAIBREwAERVM6Fc85cvA3vf4uZbd/Vr7h3t2ZWvB82A6f4+2DAjVI3r59vrBdctDl0nr3sF7Seknr06h7vWSPVm88+QEpeiiKo4eUZV0yhaigcPg5N/gfdSjPGxAAYPwyZbLaupnueq0GSH4BAABQp+Kc4nlHyyYM8smb0pLCw9+Sb7hHsrhe//etfR9zt2YEvclATb3TB7pDGjabtErSvVmP7vrdje+6x3XqU+7erdi6pFxZcs9f+AOeSyAAwDh537CC0lA9V3LiUAAAgFHDZY3tSpacqW0H0Qdpy5sekq/546Bvd5jkJE3s+5BLS+U6R1JwhVTSWsnuVwh3map3SHqwdtOpj0Te8Gim3/fk9DrZxdfx9AIBAMaerhWdSpVOMvOXuqtARQAAAEaPeOaBsmlLBj9a2PSAvPzMUA39HwlR30ciabbks+U6pXfpAT0j94eDlR4x7X93pltvz246/c/u4XGX1zzvmVzKn/cznnAgAMDoVf3HI1V55ClZkpzpYjIUAADAqGKJkv3PkRWaB3e7aVG+7s+94+nNxnwVJU2XNN1dx0hKXb5Jnm4y6RGXfmc1+1+53Vm76dS1FqtbrpBc8BOefyAAwOhSeWqd1JCfoCxcKNckKgIAADBK9C3+F+17uAZ9mH51s3zDXeOh+d9ZLzZZ0mSX5kt6gQd/u6RHJf1aqX4r6c+1m06/L0kan1LIgl3wXZ6PIABAfcv+8wgVb3tGUSE+2N1fQEUAAABGUwDgijuOUzRxzuBvetOD8p711LhXJCkv+QK5Frh0uaQn5Nm9tVrXHZHs1+nNp/3GcskTqmS11Hu8cMn/UjUQAKC+9NyzTrmmXD5Lw9mSZlIRAACA0dL8B1nLFMUdx0lJYdC3Hdb8QQo16jww07Y1BE4N8lcpy9ZaCH+S9O04yv86/eYpT8bKdQVlHl/yYyoGAgCMvJC5ZGEfuV9ANQAAAEZTAOCKpi1SPOeIwd92rShff48UsrG0AOBQhgETJE1w9wWSLpL7Y5J+nlrt53L9Ibvx9HtdXkkuJggAAQBGUEt7i4pdxVNd6qQaAAAAo6lbKCied5ysecrgZwubHpR61lDj5/nIuNQhqUPuL5N0b1D2J5f/LL3ptJ95Y/R4+kxPLW7NKX8RiwiCAADDpHT9fir11BolXSJx6j8AAIDRw2VNk5QsPmNotr7xbnnPhvG6AOBgKkg6yN0PknRx8OxJlcKv4pbk6/Lwh+q3Tl0j9zR/4U+pFAgAMLRCpUeSDnX3A6gGAADAaGKK5x2laPK8wd90WpJvfEDKKlJESzKIWiW1yn2hpJdI+j/L/Nvu+nntm6fcIamYu4QggAAAGAK1TxymTWtXqaGp/QWSZlMRAACAUSTOKVl8ppRrHPRNe/FJ+eaHmfs/dExSk6QT3f14SQ+6dKuZ3ZJ967QfeRbWZZseD/k5x8tO/SLVGkd4xWHIVEob1NDcPsPdT5AUUxEAAIBRwjPF0/dTtM9BQ7P94uPy7scJAIav51so6ZXu/nchzb7n7h+yCfseVtv8SEv15jOo0DjCCAAMzXvGJ/ZTd7GsSLafS0dQEQAAgNHVM8bzj1c0YQgGcYaqfP1dUlZl/v/wa3PpcEmHKoQ3yfTfpvRb6c2n/rJcXb+hpWG67PzvU6Ux/coGhkBPT0UtTUnU1/xPoyIAAACjhAdZ23TFc4+WoiEYxFkrKaz7c+8gdYxkHzhDrtd78H/2zP+5IZn48uDZlOrN51jtP46U3/VXVIkAANg9WeYqlrJ2dz+NagAAAIymAMB7h//ve9jQbL70pHzzIyIBqBvTXH6Ru38+S9ObLPRc6bnWjnDft/PZTUwPGGuYAoCh+cMeUinJz1bIDqMaAAAAo0i+SfGCk2WF1qHYS5Svva139X/UE5PUJul4dz9a0h3B029I+l763y/8k6elLHcxZw8gAAB29sRqKiirZCe61E41AAAARgtX1DJFycKTh2jzmXzt7ZKnYgRAPfeIfoi7DpT0cqWlm93sX7PvXnxP1Dwtq218SPkLf0iVRimmAGDQdf/V4cqUxC4/WVKeigAAAIweceeJsraZQ9P/dz8h735McqfQo+CpIGk/d3+3Qrgx69l4dbrhgcVxluazb55CdQgAgD5dm6U03UeuxRQDAABg9LB8s+JFp0tJYWgCgA13y3vWs/r/6JJIWij5hzxkN2am9wSLlvqNZ1h6I8t9jcYHExhcaU2SDpI0nWIAAACMEiFTtM+BiqfvNzTb9yDfeL9U65aM45CjUCRpP7kvc2Uvqln4r0jx16o/ecOqUHzaC5HLXvgtqjQKHkRg0FQ/vp+yNJWkgyVNpSIAAACjpTNIlHQcL2vfZ2j6//Iz8k0PSmL4/yiXSDpU7suCZzfaxvv/Ms4276Op+5j//OVUhwAA40mtWlWuqaHVTUt5fgEAAIwSHhRN3FfxvGOH7jaKq6WuVRz9Hzvykh/s8k/I/cvZ6nsvy9avaavceIT8xr+gOgQAGBeyIK9lM801n2IAAACMosZgxn6KZh4wRFt3+aYH5ZWNYvX/MSfnrtNC8M+60s+btR2fTnwqqfz0ZPkPzqM6BAAYq9wXyF1y1wyXOqkIAADA6GD5JiWLz5ByDUNzA7Vi7+n/MJZNcfeXKYSv+ob02mijlnilHKU3ccYAAgCMST0flSrlqhRpnpj/DwAAMEq4bMJsxR3HD90tVDbJN94jjv6PeSZpX7ne7a6vZbXwJvdon56vL5X/9+VUhwAAY0mWZmpsKRTkfgDVAAAAGD09W7LwFFnz5KG7iY33yiubKfX46jMPdvn1UvinOJ5+bpY+mU9vPJXKEABgzAhSyLxRbkspBgAAwGjgssZ2xQtPkeLcEN2EK6z5gxRqlHv8aXb3c9zDF1y+UpEWZDedHmU3n0ZlCAAwFt5AZCpIvoBaAAAAjAIhU7zvEYqmLhy626hulG+8X/KMeo9f09393R7Cl4Nnl5mS5nDzmVSFAACj+/0jk0XRFJemUQ0AAIB651KuQfG8Y2TNU4buVjbeL/WspdyI3HWsu382C5VPZp4uTX/+adX++3wqQwCA0ahayeQeFkrKUw0AAIA6F4KiiXMVdxw3pDfjG+6VVzZIRusBSdJkd73OQ/haWP+t16rWNan2zZOpCgEARpvmtgbJfaGkHNUAAACo904gVjzrEEXTFg3dbdS65JsfkDLm/2M7iaQD5P7XLn3Go/jIyrdfGFWZFkAAgNEjy2TuNq/vBQ0AAIC65bJ8s+IlZ0jR0O26efFJ+aaHOfqPnWmS9BcK2ReiaumVUc4a0++eRVUIADAamGRmmiVO8AoAAFD/jcCU+YrnHDm0N9L9mLy4mgAAz9FG6ACX3+CV6sdVrS4I/32SZTefTGUIAFCvej65RFFD0iDXVKoBAABQ/z1XsuRMWUP70N1EVpGvu0PylHJjd0x09ze5+xfSNH6hqzXJbmaBQAIA1CUvV+TV2hSXt1ANAACAet5xc0Wt0xXPO06K4qG7nbSksO4O6o096k/ddaLc/zaE7vcGlaZ2//gcpd88lcoQAKCeZC6F3qP/zVQDAACgngOATNHco2RTO4f2ZroelRefELND8TzsK/erlIV/KHT3HBlN29ey77+UqhAAoH7eSCR3TZBUoBgAAAD1us/mskKrko7jhnb4v1y+9jYpq1JzPF8Fl1/kmX85W/Po5aH6TFPtW4wEIABAnbyXuOTeIilPNQAAAOp1py3IJs9TNPfoob2drCZf92cpcPo/7LUl7v5p1fx9Sn1y9Rsnq3bjKVSFAAAjykwyaxMjAAAAAOpXnCiec6SiSfOG9Ga8+9He1f+BwTHF5e+R6XOWxEuSGZ3mP7yEqhAAYMT6/94PRgAAAADUrb7h/0vO7j14M5S3tOFuec/6Ib8djCuN7v4SD9k/Z089eFa2eUOSfpORAAQAGLE3FIkpAAAAAPUsnrG/opn7D+2NhFS+8QEpLYoFADHITK7jgvvfuun1aoqa0h+eRlUIADAy/b8KkmKKAQAAUI+tU6x4v7Nlhbah3S0sPy3f/CD1xlDqcPlHvRyuUSmatenfjpZ/+xyqQgCA4e3/OfoPAABQnztrQdHEfRXPOXLoh+UXV0ubV0lGq4Eh1e7ub/GQfra5qemAyhPdSm9iSgABAIb+/eQfF/WuAWDKUQ0AAID6DADieccomtwx5LfjG++X17rF8H8Mg5y7X+yuz0XTcseZEktvYkoAAQCGVlemcjnIRQAAAABQf82/y5omKe44Tso1Du1tpSX52tuoOYb3KS4/SR7+Lnh2keJcUrv5dIpCAIAhU010+5OPylwJxQAAAKi37igomtKpeO5RQ39bPevlG+8XR/8xAg50D5/xtPKaOEkK/r1zqQgBAIboXUX5uEAZAAAA6lGcUzzvWFnrjCG/qbDhzr7h/8CImOPu12XVyju8Wm4L33iBav9zNlUhAMCgMtPMtubeJAAAAAB1pHf4f7LfMDRBHuRr/iSFGmXHSJri7h/JglaEOJoZnkqVfutkqkIAgEHT1KZmr8jNAsUAAACoL/G8YxRN6Rz6G+pZJ9/0kOTsEmLkOxR3f7O7f9xy6fyQURACAAyeaaZ8aJbkjAAAAACoJ0lD79H/fNOQ35RvvE/es1bM/0e9PPvd9TK5Pm6uxdX/PFnpzScTAPC8wF478SDlGmNJSikGAABAnQiZ4lkHKZ518LDcnG+8T6pslIwAAHUjlnSRmz4T5XRAOUjpjeM7BCAAwF6zff5JUUtBJlWoBgAAQD1wKSkoWXCybMLsob+56ib55oekwPEg1GEI4DrbXZ8pKDo0eCQfxwOXCQAwOG8xLrmrLBYCBAAAqIOds6BocofihacOz82VnpFvfkQy2gvU6UtCOlUePqNIR2/8zByl3x2fZwfgFYpBYWYys7Ikln0FAAAY8b38nJIFL1A0bdHw3F7xCXlxNQEA6rplkXSiQviblnkLTojP+R4BAPB89RsBwLgvAACAkd0zk7VMVXLghcPTkIeafMM9krMbiFERAhzh7p9Nbz71VH/wfPMfn0EAAOzxK8kkM3VLqlINAACAke1xkiVnKpq6cHhuLuuRb7yfsmM0OcTdP53+uXjqzaf9UNm3x890AAIADA6X5NooqYdiAAAAjNQ+WVA0cY5yh7xISgrDc5u1orzrEXH6P4yy/uUgD+GGF9506omb7/gxAQCwR0ySaYOkMsUAAAAYqb37RMnScxVN33/4+qiuR+S1IrXHaHSQh/CpliUnHl3952PlfgUBALB7zySTzDaKEQAAAAAjw4OiKfOVLD1finPDd7ObHmD+P0azI93DJzS58bDy136n7LvnEQAAz8VkMrP1BAAAAAAjJM4pOeB8RdP3G8YbdfnmVVIgAMAo5jrBPHwq19B+YKisJwAAnktT0qR8lN8oaTPVAAAAGP4OJp66ULkDL+pdnXm4ZFWp9LTkGQ8BRjNz18nu+rissKR20ykEAMAuXzEf+LMqaU/NzJ6kGgAAAMO9V58oOfQlsgmzh/d2y2vk1S6xACDGBj/Tg1+noM7q11+g7ObTCQCAnacA5i49IokIGAAAYLiETPG+RyhZfIZkw7t77+WnpZQFADGm+uMLZbo2SuJ9fAyubUEAgEHTYObm/qgkJoEBAAAMSwfusqaJyh166fAf/ZfkPRvkaXl4px0AQ9wju/uL3cP7I4sn+M2nEQAAA+nuKUkWrSIAAAAAGCZmShadpnjJWSNz+5WNUsYa0BhzYne9NsuyNwdZY3bT2AkBCAAweE+mJKfI9ICkCtUAAAAYYu6KJs1T7tjXyQotIxQAbJCyilgDAGNQk0vvDJ692nJJko6RkQAEABi8J5NFCiFsMOkxqgEAADCk3b+Ua1DuqFcqmr54hO5CKq91SR54ODBWTfLgH8yq1QvjJEcAAGzPJEU9kt1HLQAAAIay+XYlnScqWXqeZPHI3IesKqVlcfQfY9xsd1+eVisndf/XCcpuOpUAAOjt/00WxT0u3UMxAAAAhqr5D4omzFbuqFfLWqaO3P3YEgCwACDGvqWSX9eQ5A7xcqbaf4/eEIAAAIOnkFdW7KrJ7B5JjAUDAAAYCnFOycGXKJ539Mjej7BlBAAw9rnreHdfqaZkduipEgAALe+/R1Fjo8z9EUlPUREAAIDB70Li2Ycpd9jLpCgZ2bsSavJQ5THB+Hn5Sed4CO+LCoWW2rdOJwAA3ExutlrS/VQDAABgUDtuRRNmKf+Ct8ra96mL+6OQiTUAMI7E7v4qz8Jr46yWS288mQAA4/wVkZNyTbbaek8HCAAAgEFptl1WaFHu6Fcrnnts3dwnecZjg/GmVe7vyBSfdctFP1X15jNG1Z1PePywy7/rNy3TrRct0+HXLY2yrCfJghLzkEgeSxbLPLI4Kbi8xUJoyWpqDrWsSbI2ySkgAADAYDBTvOQsJYe8RIrrZRc+iGWfME7NdfnVZ918xsNpVr5zVP0p4bGDJPl1SyWLrBIqzWlWm6DgEyRrU2Qt7j7ZXNNlmuau6ZJPN2maSxMkNUsqqHc0ifV9jiTl+z4AAACwVztqQfGsQ1S45NOKJs+vn7vV9Yiy318n33CPZAwsxvhjZt9UYm+W9FTu/J+MivvMCIBxpLJskfJq1JonntbkAyYm1e7KtJD6HHft010rzTL5LMlmuvtMSftIPq03CFDOpe0O6HNsHwAAYHia/6htpvInvrmumv/e7ice8YUIgRF9ebq/0FLdF0XxtelNp3UnF/2YAAAj9GT8yhXa8MO/V+PCzjjLQoNFUWNqYUY1bD6gcVbjweUN5f0lzeo7it8uV5tLeVp7AACAuukupKRByRGXK154cv3dv60BAPuPGLcK7v56z7L7Y8t/Mbvx1BBfXN8jAQgAxpCujy+ScpGpuzqh+6Hv75NbMH9eFsJBLj9AITvQpVmSGiQVXIqpGAAAQH3L7XeWckdcLsX1N7PSolgW5Wj/Md5NDvIPudXuqZRLv6r3O0sAMIqVVs5TrqlRWbWSCzWfG0q1A2U60N2XStpfHhZ4b8PPH2YAAIBRxRXPPUK5E98ia5pUn3cxLkhxI3uagDRfIXywobHpDelNp65OLqrfUQAEAKNMccV8mSznphb30FnpLp8i6QR3dUiaIdcUsbgjAADAKO79g6Kpi5Q/5V2Kpi2q3/sZF6Rcc2//z94nxvvLVjpd7lfEuYbrsm+dWYkv+AEBAJ6fnmvnK04sV+kJs919ocuP9uCnSzpAUotYbR8AAGCMdBEua5upwilvVzzv2Pq+r3FDbwDACABA6l0P4A1ZrXJbcvFPvlm9+UzlL6y/EIAAoE6Vr1soi3MWapV90jQ7oVbTMZKOkHSgpHYqBAAAMOa6f1mhRfkT3qh4yVmj4h5bvrV3MUAAkjTD5e8LN516Z8iq99bjHSQAqKemf8UCmSzOFNpDGg4ItfL5cj9ZUqd6V+tncBUAAMCY7P1dluSVO+oVyh36ktFzer2GyVLSJGVldlWB3tfykZnr3blcwzuyb5/THZ/3PQIAbFNa2anGGTNUXL26PfV0icmOc/cLJB2q3uH9RKoAAABju2OQoljJQRcpd8zrpFzjqLnn1jBVljTJ0zL9P9D3spD8spD2/DHORX+f3nxKllz407q5cxGPz/DruXY/Zf98otxvkptmFlevfoW7f06u/3T3T0k6Wb3D/Gn+AQAAxkG/kHSeqNwJb5Y1Tx5dd71xipRrEusAANtpdddbQ6qj0+6a/JYz6+aOMQJgGJVWzpNZUJb1NGarV8/1Fe+8xN3Pk3x/Ma8fAABgXIrnHqn86e9XNGnuqLvv1jRDlm+TEwAAO1oS3N8VN+fvrZVr6+rlTjECYJh0rZivTNGUNCRnBfdPeZZ93z0sl/xYmn8AAIBx2vzPOVKFs65WNH3J6PwP5Jql5lksBAgMxP2Fcn95rn2i+Z1vrYu7xAiAIdRzTae+9X8lnX9Y46Qs6Fx3v0jup0iaREYKAAAwrjsDxbMPVeHMDymauXQU/z9M1t4pPfFTKaQ8rMD2CnJ/Y7Zpw63avPH39fGKxaDrXtahEBTlEk3LXGe49Cq5H67elfwBAAAw3pv/GQeo8MIVimYfNvr/N2v/pPTWD0ppmYcWGKjpNvuiPH6H5Btzl/yYAGCsSD+1UHESRaVN1XnuOl3ur3TpMEmNVAcAAAByVzzzABXOuVrRnCPHxv+pZ73S/32nvOsRHl9gYJtl9vZcW9sX0+5uz104ciEAawAMgq4VnfJVR6lcTGcUN1bf7O5fdPe/cel4mn8AAABsaf6j6YuVP+tDY6f5l6Rck2zS/uJMAMBOtZn7X4bNXYtDNrJTZRgBsBeKKzsV3CyOw6SQ+lmSX+GuwyS1UB0AAAD06/4VTVukwtlXK+44fuz97x75ntI/fkJyQgBgJ4JJf6fGwrs8jnryZ35vRO4EIwCep+7lHfIQJpqyC7PUv+zu/+Cuk2j+AQAAsKN43yPUcN51Y7L5lyS1L5A1z5Y88GADO+m9XXqJKtULe8qPym88b0TuBGcB2APFZfMULJZceZmf5O6vUvAXSppIdQAAAPBspqTzBOVPf5+iGUvH7v+yZbZs4hL55ocl4xgjsBNT5Lqiyaf/JlNp1UjcAV6du9v8r5wvxZZYpAWm7DoP4Ytyv5zmHwAAAM/iLlmsZMmZyp+zbEw3/5KkpFE2+QAp1yzWAgB29afBTwgeLnW3pPbNU4b/pcpDsGtdyxconz2garCpJr/IPbxZ0gGSYqoDAACAgZp/S/JKDr5E+ZP+Uta+z7j4b0fTDldomS3feL9kLDUG7ERO0us98ltUy/483DfOK3Mnej6+v7KeqiyK8iGrneTub5R0lqRmqgMAAICddP+ypEG5I/5CueOvkLVMHVf/9/Dnzyt78OssBgjsWjDp7+LG+J0WW8XO/NGw3TBTAAbQff1ipb++Sx5rXpbVrnX3f5F0Mc0/AAAAdt7/BlnDBOVPeKNyL/jLcdb8S5LJZp8iy7XyXACeow936eKsHE6pdWXy7w3fVAACgB2b/+XzpUraYgd3XORp9u9yf7uk2WK0BAAAAHbR/EdT5qtw1oeVO/5KWUPbuCyDtXbIZhzHCADguc2U/A1xrGlZZfhulACgT/n6JfKbj5DF6nCFZcH97+R+rFgnAQAAADvv/CWZ4rlHq3DuNUoOeZGUFMZvOZIGRbNPkTVMIgQAnvuvx+nBdW48eYrVbj6NAGC4dH90oTKFhuJt6y/0LPyb3P9S0nQqAwAAgJ3vvQcpLih30IUqnH+d4vnHiUGjkk1aKpt+pDgbAPCcWt39jbW1G/b1tEoAMOSN/4oO+dskS9MOVarXeAj/5K5j1bsyIwAAALDT5t+aJyt//BXKn321oikLaP63yDUrmnOWrGl6b0gCYFcOk7JXx/lpkX/7dUN+Y+N2eHvthiVKmnJRUR0neuYfkHS6OLUfAAAAdqP5j6Z0Kn/8lUoOvHB8D/nfCZt8kKJ9TlL20DeZCgA8V0/uuiykG74ZtOGOob6xcTkCoLxigSrdtbbi08UrPPg/STqT5h8AAADP1fgrSpR0nqiGC65XcvAlNP877TISWccFspZ9CQCA5/7jsljylybx1Di76WwCgEEr688u0ZMnS6nCQvfwcffwSUmM1wIAAMBzNv/WOk35Y1+nwsU3KJpzlBSxVvSuWMtsRQteLOWaxHoAwC7F7n5JGtYckoWi/HuXDd0NjZeKFlcsUHhkTZzvaD/T3T8u94skEdkCAABgV52/pEjx7EOVP+09yh12maxxAmXZrQTAZE0zpdJT8s0PimNuwC5NNde6yOJfhFoxW/kfq4bkRsZFbFla1iGFrDlVdrmkD0k+h+cXAAAAdt37B1lDm5Kl5yt33OsUTZ5PTfZUvk3RghfLNz0o3/SAZJyEDNjFH53LZfYfIUtvG6pbGNMxnP/rodr85zVK2vIzvOZvd/mVktp5YgEAAOC5mv9o+n7KH/taJfufK+WbqcnelHP1/yi77a/kPevESABgp4KZfS6x/Lskq9lFtwz6DYzZEQBdNxyk6j3rlDTnFnvqy11+oaQGnlMAAADYeafqskKLksWnKXf0/1M062BqMghsxnGKiquV3fNlKS0RAgADi9x1XqraVyXdOiSvxTHZ/C/rkGSJzI8392tdOo6/MgAAANh54x+kOKd4+n7KHfMaxYtOkzUwcHRQ1YoKd39B2UM3SZ6xew7srEk3/U2cJO/x4D3xhT8mANiV7hXzZVGUD1n2Url/RL2r/AMAAAA7af5dNmGWcgecr9wRfyFrnyUZzemQ6Fmj7E9/rfDkLwgAgJ17xBRdHjz8Mp/Lyy74waBteExNAUg/1akQ1FAtZ2+Q+/slzeS5AwAAgJ02/rkGxYtOVe6IyxXve4SUcJKoIdUwVdF+r5bXuuRr/0QIAAxsruTnx1HyuyxNq4O54THxivPvXabuX96qqKGh3bPa29397ZIm8LwBAADAs3ceMynKKZq+WLkjX6lkyZmypknUZTgfgk0PKNzxDwrP/HYstSXA4DXqpocUJWd7Wrk//6JfDNp2x8R5OLp+daviQm6GZ7WV7v5emn8AAAA8u+v03h3gKQuUP+4Nanjx55Q79DKa/5FobtoXKD7oLYpmnkDzDwz852qOZ9llihsG9QUyql9t3cv3k6lbUjzPpWXuermkHE8XAAAAbNf4mylqm6Fk6flK9j9H0T4HSlFCbUZa8Qlld/6jwupfsDAg8Ox2/XdRnFwq6ZHkwh+O7wCgtHy+qgpKZEvkfp1LF0iKeZIAAACgt/EPkkzWNkPJolOVO+wyRVMXSblGalNXO/ZPK7vnSwqP/1hKeySLqAnQ9+qQ2XuUZX9r+bxyF/xorzc4amPPWtqjXK6wv7t/0qWzRVwIAACA3s6/d4G/thlKOk9S7tBLFc06RIrzlKYeNU1XfOCbZK1zFR66UV58irMwAH2vDrlfYElys0J4YjA2OOpeWaWVnUpDKjNbKtfH5TqH5h8AAICmXy4pihQ1T1W86FQl+52leO7RHPEfNQ9hJn/6dwr3fVVh3Z8lBXbzAak7MntNT6h+vSluUHTRj/dqY6NqBED3yk5VN29W0tJykAf/uKQz+asAAAAwnptG7507nm9WNHFfJYtOV7L0XEWT50v5Zuozmlgsm3G04tY50v1fU3jsx1KtmykBGO9agvTSQtLwgyyEzXu7sVEVABTTVC0tLYcG909JOoXnAgAAwHhu/jNZQ7viWQcpXnhq7+n82vaRIpaFGsUpgNS8j+ID3iibuFj+yC0K6+9igUCM8791fqqCHxxC9otBeIXVv/JHO5VWgiyygzyEGySdxrMAAABg3O0E936OYlnjBCXzT1C85AzFc46UtU6nPmNR9xMKT/xU4dFb5N1PqHeeB0EAxp0gs8+a7B1x6h5d+tOxGwBsXtGhvLsy2WJ3/zQL/gEAAIyzpt8zKc7JGicqmtyhZOGpiucfL5vcIWtoo0Zj/jmQyTc/rLDqO/LVv5CX1/YGAUwNwPhym8leLOmB3CVjOADo+kiHLKe5Cvq0yy+i+QcAABgvjX+QNU1UNG2x4tmHKu48QdGsQ2T5Zpq/8Sik8nW3Kzz2I/m6P8u7H+99nnDGAIwPJTN7V1ap/V1hSpvs9O8+r43U9RoApRWdcmmGh2yFSxfS/AMAAIzRZl99jZzFsjinaPJ8xfOPU7TvEYpnHiCbMItdwfEuSmRTD1M8aal804PyNX+QP/m/CpsekkK13+wAnicYk5rc/dS4Ifefte7y+ue7kbp8dfgvX6fuW76vKJebHDyslOt1knI85gAAAGOi4996hF9RLCu0yRrbFU2er2jukYr3PVzRxDmy5slS0kC5sJOnUSaV1yqsv0P+2I/kmx6QVzdLabmv04kIAzDWPC3ZZZL/PIpjJRfu+SkB63IEQNcPfqRcU6E1q2YflOv/0fwDAACM9mbNtzX+uYKitpmyiXMVT12oaNbBimcdLGubKcU5hvdj91gsNU1X1DRNmnmCvGuVfN0d8g13yzev6l00MC1KipgmgLFiuszPsshuDSFUn88G6i4AqH5ukTxVrrap9kZ3v0JSgccZAACg7jr63iHX/b/f2phZb9MV9R6BtVyDovbZsqkLFE3pVDRprmzCvoomz5M1TaY5w94mAVJckE1YLJuwWMqq8uLjUtcj8g339H50Py6vdvWOGtgy+mTLnAHbYVtAfbvAzP7WPTz+PF8t9aN7eadkcaRQ+wuXf0LSNB5fAAAwKprhXXy7Bz/cRYO9F9vz3bme73x30WzbbqOZFMVSlJPFiRT1fSR5WZyX8s2KWqfJJsxWNGmeoskdsvZ9elfrL7TI8i29vw8Mh6wq1brkaVEqPd07MqDrEfnmVVJlvTyrSKEmhbTvo+/rrU9/G6B16h8aEBhg2JUV2Rttdc+Xcm+6dfQGAKXl89UYTVYprD0ruH9W0kIeWwAAxmiDvNt9sO/9bfog3Ndn7UFF245ym0kWyfo+b/m+t0no933/z8/j92yH39vZ9vbo97bcXpyTxbmdNP99R/It3rbNfJOscYKs0Co1tMoKrbKmSbKWKbLGCb2BwNbbYTg/6ulPkUsKvU1+Zb289IxU3dy7dkDfh9c2S7WSlPX0BQTV3iAhq/Z9XekdZbDlcs920V4xwgBDwHRTEtnLzNRjF+zZKQHrZgpAVk1VKqw9yN1X0PwDAPa4AfRhuI1BfOfe+UX23L9nu7G9rT+y3b8Pu7z+Dr8zwErbtqXZ29osRr2XRfHW1d17f7blo/f7rb/X77Kt30fx1q8t2tn14q23u922BvzduN/Pd/w+7mvG+207SqRcww5VsN1q8rfel+cMAnbStO9WKLDlZ/2a7d0MCGzr19bXsHNUHuOhcTJJsRTHUtNMWdPMgf8ihpqU9UhZRZ71Nf39mv9tAUCl9yMtS1lZXuv9rHTLR0m+5eu+yz2rbFsTY2so4dvej7z/1wO9Rz2P9wKMtV2jpSFoqaT/G4Q9kOFXXNkhSXM9+N+661weUQAYoDEdlUOKd7Y969do9htevLWp7Pf1gD/bdpn1H5bcf7s7Dll+rtvcxc9soPuz0+1uv9iUbWlCtzaj8bbGs+/ztuY02dp49v5ev9/d4Xe2Naz9th1tabr7X3/7Brf/dW2A+2MD3MaOn81iKclLUW6AI1sDPAb96mO79Vjbs58nu/0Y9j0jdvp8eK7Hkp1oAM/3LTtInkqh77NnvR8hk/f7WqG2LRyoFXsXKkxL/b4vSX2fe78v945Y6L8N32Gbnm3/823nRGQaw9hUldn7Qpp+ptDSKjvnu7v9iyM+AqC4olOSJnkWPuTSWTyWAJ5Xc7zHvfBIDCt+jtt+XkODdzzKN8CRvf7X00BHKPdsuPK2+9V/eO9zHAWVbTsKrP73KdrWdD7rqKw9q3nd/uhusm2BsQGP5u7kyHD/be5wJHnA6+x4/a3bevYRaIuivhXMBzqSagN+OWhH73fZuNpOvmWnDwAGjUWS5aVot/5q97u8/5H+AUYFeNg6ysDT0rbRBVtGFPSFCVu/znr6PrZMXahsm66QVaWwwxSGrLIH0xh436gTeZMfmyvkv5RVezbs0dN0ZJv/DkWR5bLM3+ruyyS18lgCY61HD33NYCJF/Y627UZDYlvfTAcayrtjo7d9s7f1KOgATeSuG8+dbSd61tDlrUdtn9Ug9hvuvN0Q6GjA7Wwddrzb84V3aO53GgpsP7zYdjb313YVCjzHvOE9GbIMAACGaf/Lt61dEHYRAmz9urI1WNg6ZWFr0FB61tSG3mkMYcuNbT9tYcv37oyqGlqPSLpU0u9yzU2ys3ZvFMCIjgDoeapbhRmtZ0h6F80/MBYb/1jWNlPxjP0VzTlC0cQ5skJLvyZ518OY1X9uq7TTIcDbDfcdaEj3bg/93fnQcXueQ8cZUgwAAIad9Z4aUfG2M6oPtCdiA+2/DTS14FnTDtLtpi3YDtMXvLJeKq6Wd6+WVzdpuykJGCxzzOyopGnK7728frfHpY5YAFBc2SlJB3rIlrlrHx4/YEx1/7LmyUr2P1e5gy5RNHOpFOc5zzMAAEBdBwdbDsDkpHg3AgNtm8Zg0vYjAbKKfO3tCo/eovDUrb2jDAgBBvXRctc5aWntv0raVLcBgH9rnop/NLmHae7+PrkO57EDxlLv74om7qv8C96mZOkLpVwjNQEAABjbvWjfp34NftIkm3GM4gmLZM0zFR74hjzUKNXg7ngf6bJ58nDb7v7GsE/KLP9RiuV5c79SrheNxH0AMMTN/+nvU3LwxTT/AAAA413DJEULXyqbdbKG/7S7Y94Ek87KNRR2+xeGvfm+Y9UaZdILg+utkhp4zIAx0/3LGtuUP/ntSvY/l/NJAwAAoFe+XdHcc2QNU/pNE8BgVNblp9VC1Fz9zjn1FwB0L5+v/edNX+Sud0uawuMFjCWmZNFpivc7hxXfAQAAsP2eYtt82cQlO5xyEHvNNd9qlaVW7amvAKC4YoHM4laXv03SMTxSwBj7o55vVnLQxbJ8E8UAAADA9grtspZZLAo9+GbJ/TBlQf7ri+ojAOi+Zr7itiQKSl8k95eJef/A2OJB0aS5sgn7UgsAAAAMLNcqWUIdBlejZIcmDYVCeLqrPgIA1YLSTZUDLPi7JE3kMQLGWgDgspapsnwztQAAAMDOdhopwZBU1Q9Oa7U5IYSRDwBK18xXlLMJcr3PpaU8PMAYFcUM6QIAAMDO9WyQOBXgUFgqWYeymqq3vGTkAoDuFR0KObeQ6XKXX6CtJ4gEMKaYyXs2S2mVWgAAAODZSk8rdD3MAaOh0eLyI5VvSqxn3cgEAOWvnywv16RKdKBcr5fUwuMCjN0AIKx7WF5eTy0AAADwLL72NmnDvZwtaqh2x+UnKas2P9dZFoas+umdj8iaG5rdw5tcfhAPCTDG/+SU1it94OdS4NQuAAAA6Nf8b16l8OA35WlJDAofqiLbIRbFM/05lgEYsgCgUqrI0+xsub+URxkYD390gtLbvqHw5B3UAgAAAL27iF2PKNzxeYWN99IWDmWd5W0ewvG1UnH4A4Di8g41NhXmSf6Xktp5OIDxwBTWrVLlJ59UePpuygEAADDeW9JND/Q2/0//jnIMvQZ3HZdvbzf/ybk7vVI82Ldavq5TcUOUy2r+dkkvG4rbAFDHf+g3Pq7ssT/IkrysoU2ySGZR73wv6w0KAAAAMEZlFXn5afljP1K48+/lG+6WFNgHHB49ceQ3qpqWl3911YBXGNRHobKyQ+WaKxfbycH9i5Lm8hgA4zMIUJxXPHWBomlLZC1TpHxTXwgQbwsFoi3BQNR7GsEtf5KieOvlveGBbbve1q/7XSbrFzLs5Dp9X+98e31fq+9+yfrdh11cf6Dty/q2McB9AQAAGG1CKoWqlFWkrCoPvZ+3fK9QkdKKvLpJvnmVfO1t8u5H+075R+M/jB6KzP5CpluTi3464BWSwby1WpBySdTi7v+P5h8Yz0zKasqevEvZ6jt6A4Gd5AQ7fLFDAGD9muhtjfTWJvtZzXX/7/tfL9rJdQf42dYwYdfbHqi5t11tW9vfhsxkUdIXgvT9f/t/bZEsevbltrPrb3edgX4e9wsrYinqNzJj68/6Xd7/+jvcjg20zWiAy2R9Z/qxZz8/tvvSBn4O2U5+Z+tFu9juTrdtA3zJjgkAYIxw79uv8h2+7tvf8tDXtPf0LsiXlrf78LQsZWUpLcnTHiktSVlPX5Nfk/d97g0D+n9dk2cVKS323saWfR/eY4fbNHctkevWnV1hUAOAtFxW3Nh4htwvpPYAepvfvZgF5C4p6/u8w8W7ThQGihWefV3frTuxB1fx3f2PbQsJtja7A3xt/d44d3Fd24PrapCua7t7XYukfkGH9YUM6vfZdgwPtvscbwsdnhVoxNsCkZ18th231T/E2MXtbQtStr+ObXeduN9oEXuOzxrwctvJ5dt/1h5vt/dX+l32XL+33eMPABjZJj7rPauSZ5KnW7/2kPb9rO+zZ73NfFqSaqW+hr7fR7/LvO97ZeW+o/lZb6Pumbzvswb83Pex4/7dln2AbRf2e29hBvgIapHZkkeu+omy775Q8bnfGboAoHjdQsl9utfSN7rURu0BDGKSsMtvd+MHg3L14d8B8G2hgj/PoMMH9Q7t5WZtNy62QXo+2O7fJ9vLJ4pp+0Bhu5ETu5j2st3ojajfCI9n/8x2cv3twoln3e5AvxMPcD92uA/9QpDttjHA1Jrtp8fsOJqmL2zRzqbN7Gpbu/F1v6k2Fm0ZlRPt4r4+1/QfAhAAgyzUtg2Pz6q9R8i3DpnvN5w+q2y9jtJy39H5nr4j8T39Luv9rH4/c+9/oKTf52cdnPB++xb93tuea59q699cjJr8yH3x3JWnTw2VnjUD/XxQAoDqR/fT6ifu05Spc17k0nGUHQCGMRAZtpCjXhok342Qw5/35p7fPUqfc8Pug31HfA9/zffwajtcfxfTX7aORnmuaTb9LjPbcVpMNMD3z556Y7sznWeAy2xn29VAU3l2HB2y4zSYAabXRPH2a5E8a1rMrqfePCvMGeDnA1++Y1i040iYgaYKmWy7nf/dmKYzUN2AsdMx6VnD5re7rG/Y/JYh8ls/SvJsgCH0W4fN9w6P961BwLbh8goDDKn3rG+QoO3kvdf2YvrajqP5MIaf0Ivk2UxJa4Zkb6769weo8kS3LLElHvxLko6i6AAAjIudjD3IGHzPtjmoU3T2MFzZborLlt0l275ZftaUlx2nv/RN89jZz3c5DWg3f76zr/tdZju7z9FA01ueHSxYFEu5BlnjJFnzJFnTls+TZU0TpXyzrNAiNbTK8s0cKUQd/pkKfc14ZdsR+FCVakWp2iVPi1Ktu/f7/kPl0/5D6nv6DbvvHRLvAw6V73+Z7/zvyqA09MBOVSzSxaEnfC8/q0F24g+2++FejwCoPlNUVIhynoaXSDqCegMAMF7s7vSc57FzOx6m6DyPbGJPQxHfm2Lv2JjsEGSYRVJju6IJcxRNmiubNE/RhFmytpmK2veRtc2QkgZeJhjeZr+6WV5+RupZJ6+sl0pr5OU1UmW9vLJBqmyUqpvkWW2HV4kPEBjuJJB8rqlnFtPPYyQV5HZQvrXhB9n6NNvxh3sdAHjqssgWyPVKScS+AABgHBvpoGMIu44dQg9XJnWvUdb1jLJHf9d7Ya5J1jJFUctUWfssxbMOVjzvaEWTO6VcY98pX4FBavY9lSqb5JselHc9LN/86Lbmv7pJqm7uPdqv/gue7snrxIb8ZQUMyctDOrRWTRsl7x7UACC7bj8FD3GlVnmFS/MoNQAAwHiyZb2FLTuHFfnGx5VteFR67A9K7/2RrLFN0cS5iucd2xsGTOqQtU3vPUMIsEfNR0Ve2SiV18g33CNfd7t80wPyWnffwniV7U9BZyYZzzOMxwTAD5TUMOgBQE+tR5IOkOxiyYl0AQAACAS2rQWQVeRda5R1r1H22B+kX/+T4qmLFC88WfH8ExXNXCrLNVI27Fx1s7xrlbzrkd4j/RvulXc90juv3/sW69tusUoGJAOSZpjZNHdfO2gBQHllp3JJLu6pVC51+SJqDAAAgGcHAlu+dqnWo+yJPyl74jZFt9+keN/DlCw5S1HHsbJCK80behv6UO1t+J/+jXzdHfLux+SlZ7YN5+//PGFVe2AgeckXhZDdNSgBQPqphSpvril4OEjyi8XcfwAAAOxWJtC72xjWP6yw/hGl9/5Y0fTFyh14oeKFp8ra96FG41FakpeeltbdofDUr+Qb7++dx59VtjX9xoBjYDcVJC255fY7NSgBQKWYKs7FuZCFS1zan/oCAABgz4KA3mbOezYre/R3yh7/k+I7v6PcoZcpXniyrHECNRrrPPQe3V9/p3zt7fK1t/Uu4udBvQtOGk0/8Pzk5FpywWGHSfrR3gcAIXNFFjokfxm1BQAAwPMPAvqGcIdU2cO/UnjqTsX3nqDc4S9XPPcoKc5To7Emq8o3PyR/4qcKa/7YO6c/LW9bvK/3iUGdgL3g0lzl4mb/ztlFe+EtexcAxPmcQppe6q45lBYAAACDEwZE8vJmpXd+V9kjv1Wy/7nKHXG5oqkLWR9gLLQjlY3yjfcqPPYT+Zr/613RP9QY3g8MzWtuSqjV9pV0T/9L9zgA6L6mQ8HTOS5dIClHYQEAADB4IUDvkV/vXqva776i8MSflDv+CiWLz5Ridj1HZeNfXK3wzB/kT/5SYd2fpbQkhvgDQ25ScJ+7VwFA7T9OVfE3tytubz1b7kupKQAAAIYyCMieuE3hu8sUnrlfuSMul7VMpTajou/PpNJTCo/9UOGp38g3PdR76r6tIzkY4g8MsYlyf9aI/T0KAKr3rFJuQvuMEMJ5kpqpKQAAAIY2CIjk3c+o9ovPKTx1p/InvVXRPgdRl7pt/EPvEf8nf6HwyC3y7id6T99nEdM4gOHVaKa51Y1d8h+eKzvju3sWABRXdKqWVhXHyZGSn0g9AQAAMGwhQKgpvfdHCusfUf6UdypZfLoUJdSmnpSeVFj9S4XHfijf9EDvKACG+QMjxzWjacKkptBdKW25aLf/anoIysVJs7u/yKUJVBMAAADDmAJIksIz96r6/WuktKJk6XlSRHM5sg2GS9VNCk/8VOHxn8g33CNl1R1W9AcwMv2/pqWWtkra8wBA7vLYFiroHDnFBAAAwEjkAJHCxsdU+UFfCHDQRZwqcKRUNyk8/RuFh/9bvvH+vlP5GUP9gfoxTcFbJT29xwGA5SOFNFws1yTqCAAAgJEMAbxrjSo/+pg8rSh3yIulXCN1GS6eytf+WeHhmxWe/k1v49/3uACoK1Nl1uq+7Qj+bgUApRWdUqYZcp2u53HqQAAAAGBwQwCTF9eq+tMbpJAqd8TljAQYjt6/9JR81bcVHvuxvLiaof5AvQcArlaTyf/npbKTvqbnjOnc71LIUgUPL5C0hBoCAACgPkKASF5ar+r/fFbp3d+XmKc6dGpdCo/9SNlvlym772v9mn8AdaxVpilpWpM2r5e0G0fzSyvPV5wrNKZp7VSJ4f8AAACosxCguF7Vn31a1jZd8ZyjqMlg8iBff4fCqu/IV/9CnpbUu7I/zT8wOl7DmtXQ1GqhVnFJux4B4J87UiFkSrPaIslPonoAAACovxDAFNY+pOrP/kph7YPUY7BUNync/zVl//cxhUe/v635BzCK+n/NTmvVXOj7fpcBQHn9erW0t5tJJ0haTPkAAABQryFA9vCvVP3F38iL66jHXnUMLl9/p7I/flLZ3V+Udz/e1/jT/AOj7k+jNFtSbsv3u5wCkGWZips2tbl0Pq94AAAA1Lv0zu8omjRP+RPfLEWsXb3Hat0Kj/9E4YH/6mv8xXB/YBRz+WxTyHnfGim7/KvowWVJPF8hHEbpAAAAUP8JQFW1//uq4tmHKu5kBuseNQpdjyrc/zWFJ34m1Yo0/sDYMFWu2PqO5+8yAGjKNaon6zlT0gTqBgAAgLpnJt/8pGq3/qOiKZ2y9lnU5LmkJfnTv1V277/JNz0oeaD5B8bKn0SpXaZE3jsCYKev7O5rF6onylpcdor6zRkAAAAA6j0ESB/+tWq33ySFlHrsSnmNwr1fUfanT8s33i/JJWPmLzBWuFSwSK2h7yypOw0APM3kaXaw5IsoGwAAAEZRAiBlNaV//E+FZ+6jHDtpC3zTg8pu+7SyB74ur26i8QfGptikCb6rEQDdKzrkIUjy4yXNoWYAAAAYXRmAKWx4VLXff0VKK9Sjv1CTP/krZX+4XuHJX0mhJtb7BsasKARN3JLvDRgAuEsW2xS5Hy0ppmYAAAAYddyV3fsjZY/9nlpskZUVHr5Z2W1/Ld9wnzi9HzDmxZImSjsZAdD9tYtlcplrnqTDqRcAAABGJTOFrjVKb79JqpWpR89aZXf9s7K7/kVeepqF/oBxFAB42NkUgIfukK9dI5n2F8P/AQAAMKq5sof+V9lj/zeua+Ab71X2p08rPHijlBaZ7w+MH5FcE2sWdhIA1GqKpkxrVPDjxXggAAAAjGYWKWxarezeH0m1nvHZ/D/ze2V/vKF3vr8HdvGB8SV284lP3frUwAGAB8mjpMVlx1MrAAAAjP4QwJTe9xOFTY+Ps94/yFf/T998/3t4HgDjNACQNLHj9DkDBwDBXfJ0qeT7UisAAACMgQSgdxTAfT/pOwI+DoRU4dFblN3+OXnXY8z3B8b338Bmr0UDBwBtSxZLrhMlNVIoAAAAjJWGOL3nB/JK99j/v6a9K/2HO/5BXn6G+f7AeG//3fNJOsAigOkn5yt94oEGuY6RlKNUAAAAGBtcYf0qhdW3j+3/Zq2o8OB/Kdz9L/LKRjHfH4BkedcAIwAqRVe15Atd3kGRAAAAMHb2fyN5ab2yh345dv+PlQ0K93xJ4d5/l1e7OfIPoI/npezZAUBwV3BfImk6RQIAAMCYktWUrb5d3vX02Pu/ldcqu/tflD10ozzrofkHsK39lxId2Wrul24LAGqfX6K0O5WZLZY0iTIBAP5/e/f2Y9d11wH8u9Y5M+PxJXbiJk3iNE1Ck6hV0wu3ovJUVeWlUAoPCJB4q4R45L2PCF5AiH8AtVWLWqAXVEgbCrQJaUroLWpJHcexYyf22I6vM/bMeOacsxcP4yYlcRLSeOaMz3w+D5ZmbGnt+W15zf59z1prA0yUUtPOHk535vBk/Vwr5zM68Jl0Rx5MukEs+wdepld+kn6+sfpSALB6epCZPbO7ktynPgAATGIA0C2cTHfmmcn5mVbn0z31mXRHv5a0oeYfuGoAkOVRP0vDlwKArnUZdaO3ttYEAAAATKbWpZv70WS8DWB1Id2Bv0t35F+STvMPvKqarPaTKysAVv/qvUlrKa27Ncm96gMAwGQqGZ3cn6xcvL5/jMFiuoNfSPfsV9K6VbcVeC29lDKVUtYCgMHlpZx44kiScl/s/wcAYGL7/5J2/mja0vnr92cYLqU7+Pl0h76YNlqJT/6B11HTun5atxYAtOEw+95/z7a0vE9tAACYZG1wOd3pg9dv83/oi+me+ce10/41/8DrKymtprT012bBlpY2k+RdagMAwGQnAN1aANC6pNTr57q7YbqjX0v39OfThste9Qf8v2e9lK5LcmUFQJJWe7MteYfaAAAw8QHAuSNrAcB19Pze5h5Od+BzaYNFzT/wRnTp6ihdvfIWgNZS0t6WZLfaAAAw6QFAu3As6UbXzyWffiKj/Z9KWzmn+Qfe8BSSWkepVwKA1lrS2v1JptUGAICJfxpenk9bvj4OAmzzhzLa/7dpF5+PPf/Az6FLr47SuxIAXCoDAQAAAFsnABitpC2e3fwXuvxCuqc+lXb2xz75B37+AGA0PUo3ndran+Wtv//RklLuS64cCggAAJNsNEhbvrC5r3GwmO7AZ9OdeCw++QfeVABQulHS0l/580+lJbtba/vUBQCAyVeuBADzm/hxfTXd4S9m9NxD19lhhcBmnFHatr3DUvupo1FLN2r7ktyoLgAAbAmjQdrlhU16cS3d8W9ldOhLyXDFvQLelJIs53IbZfYTqa21tNZuSbJTaQAA2ApPw611m7a5bhcOpjv4heTyefv+gTc/pySXutFcygc/mH5LS5KbBQAAAGwZXZeMVjffda0upDvw2bT5w0mp7hNwDZRLXeklSfpXMsVbWrJLYQAA2BJalzbcZAFAt5ru0JfTnfwv9we4ZjNLKVns75lNktTLy0tpyVuSTKkNAABbKAXYXFdz8vF0R76ajOz7B65dANDSLs0/fXItANi5+4bptHazugAAsGWUklxZErspmv+LRzN6+nNpy6ct/Qeu6fRSksW6fWYtABitDnZn7QwAAADYKglASt0kAcDgYrqnP5d2/mnNP3CtjZIsTE2vfVGv7P0XAAAAsIX6/5L0+pvgQlq65/417fgjSTr3BbjWuqScLXXt9L+aVnYk2aMuAABsCS1rn/5PzY7/Us4/le7Zr6YNl5N45R9wzY2ScrZcOfOkprRt8QYAAAC2ktpPmRnzI/DgUrrD/5S2cMTSf2C9DEvKmRenvpZsS7JTXQAA2DJ6Uykz43wEbulOfifd3KNr2xEA1scovXK2lBe3AMQKAAAAtpCW1H4yc8P4LmHxRLpn/iEZXnI7gHVTSi61ri29GADUWnZmbRUAAABsjYfi/kzqzr3jGXy0mu7wl9PmD8W+f2A9teRsa6Nhu/J1TcuNZh4AALaUqdlk+3gCgHb6e+mOfTPphu4DsN5Ol5TRTxv+2pKb1AQAgK2jpOzYm9Kf2fihL59Jd/gracunHfwHbIS5lDb46Rc1aTeqCQAAW6f/r6m792384XutpR1/JN3pH2j+gY2Z7pJjtdRhubLov7ZWZpUFAIAtFQDsvWvDm/C2fDKjow9a+g9s5IQ3V3/1Y4NSe2sBQCltSlEAANgyaknde88GBwAt7fl/S7t4NI7fAjZs4knmVh/7Umr/SgDQkhl1AQBgqyi9mZSb7tzYp/D5Q2sH/41W3QBgo8yntfO11JSPPrQWAJQUKwAAANgaWkvZvS9l2+6NG7MbpB1/OO3iEXv/gY10Jsml9jPfqK1lJtYhAQCwNRKA1FvuTWZ2btyIF4+kO/bvSdcpP7CRTqVk4WfPO60lbVpdAADYGv1/S++W+1Nmdm3MeN0w3ZGvpS2e2Pi3DgBbWik53uuXC/VnFh7V2AIAAMDW6P5Tpren7L17w5bitwsH0k48mrWzuAA21Fy5ddeF2uu9FAC0pK8uAABMfv+/tv+/7rljg8YbpXvuG2nLp2PHLbDxM17mBs/Pd9nx0rn/taTZjAQAwOTrutS9d6XcdNfGPH2fP5B2+vvxuA2MwXxpOVZSUj704Ivf7CcZqA0AABOvN5V6870ps3s2oPsfpZ3677RLx538D4wlAEgpcy9ffFRbigAAAIDJ1lrKthtSb3/Pxgy3eCLd3CNJG6k9MA4XUuuxlweQ/SRDtQEAYMITgJTtN6a3IQFAS3vh+2kXj/r0HxiXM73+1NzLv1lLaYM4lhQAgElWauot96Xseuv6jzVcSpv7lk//gXFpJTmUwepy/ejX/28A0JLL6gMAwKQHAL23fyCp6/8CrHb2x+nmD6k5MC6rKeXJxaWVV/xFLSkX1QcAgInu/6e3p/e2X0zKOr+Orxumm3s0WV2IV/8BY7JSUp6cmum9MgBoiQAAAIDJ1Vrqzfel3HDb+g+18GzauSe9+g8Yp8Ukz9SrBJ61CAAAAJjoAKBL723v35DX/7WzP0q7+FxSeuoOjEVJDrfWLZSrrEKqEQAAADC53X/K9Gzqbe9O+jPrO9TKuXSnHk86L9kCxpkAlP8ptV6+2panmpQFFQIAYCJ1XcqeO1P33rPuQ7WFI2nnfuLVf8C4/ah3577LtffKuai2tPkkK2oEAMDkaal7707de/f6DtMN0078ZzJYVHJgnC4meWpw5PlW61UCgKwdEHBBnQAAmDj9mdRb35XM7FrfcZZPpzv13SRNzYFxeiZpJ0pJym9+45UBQElbEgAAADBxWkvZtju9O9637kN1px5PWz6j5sB4lXKw9XonW736ViQrAAAAmNQEIHXH3tTbHljfYQaX0k59NxkuJVc5dRtg4/r/HMyxc+frzm2vEgCUspjkvFIBADBZT8I19fb3pMzuXtdh2vn9aRcOaP6BcVtIy4Fy2570P/zgqwQAKVYAAAAweWovvbs+kNTe+o3RDdPOPJF2+YzT/4FxO5W0/a91FkktvemlpFgBAADARCnbdqfe/kDW9ZP55RfSnXzc2X/A+Oe8kmO1Tj9VezOvHgAsnDm7UooVAAAATJDWpXfbu1N23Ly+w5x7Mu3ikaRY/g+MVZeWH5TR4FLvYw+9egCwa/fOpAkAAACYpACgpe57X8rsnvUbY7SS7vjDSTdSb2DcllPKd1ZHw9f8RzUlydoKgGU1AwBgEpr/Mrs79dZ3ruv+/zZ/KO38U7H+Hxi3Usp8au8HvfraZ5HU1lpaa+eSLCkbAADXfwDQpe69O/Xme9d3mJPfTls5H6f/A+Of99oTGY3Ovt5hpLWmpKYcTXJO1QAAuO7Vmrrv/ak3vX39xrh8Ju3sT5JuoN7A+Pv/Ur6TXm/p9c4jqVP9fqb6/f0pZb+yAQBwfT8Fd6m778jUe347qf31G2bpZNryC/HpP7AJnEnLt9toNGzltbck1elPHszlweXFkvLpJF4HCADA9dr9p0zvyNSv/FHqvveu81glr7fUFmBDlPJgevWJ1JLpj3/ztQOAtT966U3Xr5dSPp1kVQUBALi+ev8uZWp7pn7pD9L/5T9MSm9dhys79qXsuD0OAATG3Pw/Vkr+urTu/PTH/+N1/3kvST75kbekG40GpdYfJplJcn+SWdWELfkE5VkGgOvod1aX1H7qjXdm+tf/OFO/9omUbbvWf+j+tpTeTNq5/clgIWsrAtwRuEZdrRK8vqWUPFZK709Hw5UfzvzuI2+8spf+4p60ZHtZ7X4rrfxeS3tnkr1JptUXtsBU25uaSn/b9pRi1gVgk//Sqq1Mb+/KzptX6+0PDPoP/E7X2/fedX3t3yvzh1Ha8YdL9+xXp9ri3ExGy73WpOjwJv9fDTNaWUrrOsV4Re8+TLKQkkMl5Z9bv/z9yuPHT8x+6K70P/zQGw8AkmTlL38h039yQ5b+Zn5PG3TvaClvKQIA2AqzbcrMDVNl5y3bU3s2NQKwuX9n9Wda9twx6t//kdX+/R8ZZGbneJqF1pV26rtT3dEHZ7I412sZCdHhzfS4o5VhW35hMd1QAPCK6rRRS5mvtT3bmx0eL7/xqKIAAAAAAAAAAAAAAAAAAAAAAAAAAAAAAAAAAAAAAAAAAAAAAAAAAAAAAAAAAAAAAAAAAAAAAAAAAAAAAAAAAAAAAAAAAAAAAAAAAAAAAAAAAAAAAAAAAAAAAAAAAAAAAAAAAAAAAAAAAAAAAAAAAAAAAAAAAAAAAAAAAAAAAAAAAAAAAAAAAAAAAAAAAAAAAAAAAAAAAAAAAAAAAAAAAAAAAAAAAAAAAAAAAAAAAAAAAAAAAAAAAAAAAAAAAAAAAAAAAAAAAAAAAAAAAAAAAAAAAAAAAAAAAAAAAAAAAAAAAAAAAAAAAAAAAAAAAAAAAAAAAAAAAAAAAAAAAAAAAAAAAAAAAAAAAAAAAAAAAAAAAAAAAAAAAAAAAAAAAAAAAAAAAAAAAAAAAAAAAAAAAAAAAAAAAAAAAAAAAAAAAAAAAAAAAAAAAAAAAAAAAAAAAAAAAAAAAAAAAAAAAAAAAAAAAAAAAAAAAAAAAAAAAAAAAAAAAAAAAAAAAAAAAAAAAAAAAAAAAAAAAAAAAAAAAAAAAAAAAAAAAAAAAAAAAAAAAAAAAAAAAAAAAAAAAAAAAAAAAAAAAAAAAAAAAAAAAAAAAAAAAAAAAAAAAAAAAAAAAAAAAAAAAAAAAAAAAAAAAAAAAAAAAAAAAAAAAAAAAAAAAAAAAAAAAAAAAAAAAAAAAAAAAAAAAAAAAAAAAAAAAAAAAAAAAAAAAAAAAAAAAAAAAAAAAAAAAAAAAAAAAAAAAAAAAAAAAAAAAAAAAAAAAAAAAAAAAAAAAAAAAAAAAAAAAAAAAAAAAAAAAAAAAAAAAAAAAAAAAAAAAAAAAAAAAAAAAAAAAAAAAAAAAAAAAAAAAAAAAAAAAAAAAAAAAAAAAAAAAAAAAAAAAAAAAAAAAAAAAAAAAAAAAAAAAAAAAAAAAAAAAAAAAAAAAAAAAAAAAAAAAAAAAAAAAAAAAAAAAAAAAAAAAAAAAAAAAAAAAAAAAAAAAAAAAAAAAAAAAAAAAAAAAAAAAAAAAAAAAAAAAAAAAAAAAAAAAAAAAAAAAAAAAAAAAAAAAAAAAAAAAAAAAAAAAAAAAAAAAAAAAAAAAAAAAAAAAAAAAAAAAAAAAAAAAAAAAAAAAAAAAAAAAAAAAAAAAAAAAAAAAAAAAAAAAAAAAAAAAAAAAAAAAAAAAAAAAAAAAAAAAAAAAAAAAAAAAAAAAAAAAAAAAAAAAAAAAAAAAAAAAAAAAAAAAAAAAAAAAAAAAAAAAAAAAAAAAAAAAAAAAAAAAAAAAAAAAAAAAAAAAAAAAAAAAAAAAAAAAAAAAAAAAAAAAAAAAAAAAAAAAAAAAAAAAAAAAAAAAAAAAAAAAAAAAAAAAAAAAAAAAAAAAAAAAAAAAAAAAAAAAAAAAAAAAAAAAAAAAAAAAAAAAAAAAAAAAAAAAAAAAAAAAAAAAAAAAAAAAAAAAAAAAAAAAAAAAAAAAAAAAAAAAAAAAAAAAAAAAAAAAAAAAAAAAAAAAAAAAAAAAAAAAAAAAAAAAAAAAAAAAAAAAAAAAAAAAAAAAAAAAAAAAAAAAAAAAAAAAAAAAAAAAAAAAAAAAAAAAAAAAAAAAAAAAAAAAAAAAAAAAAAAAAAAAAAAAAAAAAAAAAAAAAAAAAAAAAAAAAAAAAAAAAAAAAAAAAAAAAAAAAAAAAAAAAAAAAAAAAAAAAAAAAAAAAAAAAAAAAAAAACM3f8CCBijDdZAkRIAAAAldEVYdGRhdGU6Y3JlYXRlADIwMjItMDUtMTNUMDk6NTc6MzMrMDA6MDAZUf3UAAAAJXRFWHRkYXRlOm1vZGlmeQAyMDIyLTA1LTEzVDA5OjU3OjMzKzAwOjAwaAxFaAAAAABJRU5ErkJggg==;" parent="mDk10lRaXqg-SpX3seUj-47" vertex="1">
          <mxGeometry x="10" width="80" height="80" as="geometry" />
        </mxCell>
        <mxCell id="mDk10lRaXqg-SpX3seUj-48" value="jokesapi.verbenablom.co.za" style="text;html=1;align=center;verticalAlign=middle;resizable=0;points=[];autosize=1;strokeColor=none;fillColor=none;" parent="mDk10lRaXqg-SpX3seUj-47" vertex="1">
          <mxGeometry x="215" y="80" width="160" height="20" as="geometry" />
        </mxCell>
        <mxCell id="mDk10lRaXqg-SpX3seUj-60" style="edgeStyle=none;rounded=0;orthogonalLoop=1;jettySize=auto;html=1;dashed=1;" parent="mDk10lRaXqg-SpX3seUj-47" source="mDk10lRaXqg-SpX3seUj-57" target="mDk10lRaXqg-SpX3seUj-48" edge="1">
          <mxGeometry relative="1" as="geometry" />
        </mxCell>
        <mxCell id="mDk10lRaXqg-SpX3seUj-57" value="Magic" style="ellipse;shape=cloud;whiteSpace=wrap;html=1;strokeColor=default;" parent="mDk10lRaXqg-SpX3seUj-47" vertex="1">
          <mxGeometry x="235" y="330" width="120" height="80" as="geometry" />
        </mxCell>
        <mxCell id="mDk10lRaXqg-SpX3seUj-49" style="edgeStyle=none;rounded=0;orthogonalLoop=1;jettySize=auto;html=1;dashed=1;" parent="1" source="mDk10lRaXqg-SpX3seUj-48" target="mDk10lRaXqg-SpX3seUj-41" edge="1">
          <mxGeometry relative="1" as="geometry" />
        </mxCell>
        <mxCell id="mDk10lRaXqg-SpX3seUj-51" value="&lt;h1&gt;sgMaria&lt;/h1&gt;&lt;p&gt;allows 30303 from sgBackend&lt;/p&gt;" style="text;html=1;strokeColor=none;fillColor=none;spacing=5;spacingTop=-20;whiteSpace=wrap;overflow=hidden;rounded=0;dashed=1;" parent="1" vertex="1">
          <mxGeometry x="-320" y="390" width="190" height="120" as="geometry" />
        </mxCell>
        <mxCell id="mDk10lRaXqg-SpX3seUj-52" value="&lt;h1&gt;sgBackend&lt;/h1&gt;&lt;p&gt;allows 7184 and 5184 from alb&lt;/p&gt;" style="text;html=1;strokeColor=none;fillColor=none;spacing=5;spacingTop=-20;whiteSpace=wrap;overflow=hidden;rounded=0;dashed=1;" parent="1" vertex="1">
          <mxGeometry x="-320" y="530" width="190" height="120" as="geometry" />
        </mxCell>
        <mxCell id="mDk10lRaXqg-SpX3seUj-55" value="&lt;h1&gt;sgFrontend&lt;/h1&gt;&lt;p&gt;allows 80 and 443 from alb&lt;/p&gt;" style="text;html=1;strokeColor=none;fillColor=none;spacing=5;spacingTop=-20;whiteSpace=wrap;overflow=hidden;rounded=0;dashed=1;" parent="1" vertex="1">
          <mxGeometry x="-320" y="670" width="190" height="120" as="geometry" />
        </mxCell>
        <mxCell id="mDk10lRaXqg-SpX3seUj-56" value="&lt;h1&gt;sgAlb&lt;/h1&gt;&lt;p&gt;allows 80 and 443 from Cloudflare&lt;/p&gt;" style="text;html=1;strokeColor=none;fillColor=none;spacing=5;spacingTop=-20;whiteSpace=wrap;overflow=hidden;rounded=0;dashed=1;" parent="1" vertex="1">
          <mxGeometry x="-320" y="800" width="190" height="120" as="geometry" />
        </mxCell>
        <mxCell id="mDk10lRaXqg-SpX3seUj-59" style="edgeStyle=none;rounded=0;orthogonalLoop=1;jettySize=auto;html=1;dashed=1;" parent="1" source="mDk10lRaXqg-SpX3seUj-58" target="mDk10lRaXqg-SpX3seUj-57" edge="1">
          <mxGeometry relative="1" as="geometry" />
        </mxCell>
        <mxCell id="mDk10lRaXqg-SpX3seUj-58" value="User" style="shape=umlActor;verticalLabelPosition=bottom;verticalAlign=top;html=1;outlineConnect=0;strokeColor=default;" parent="1" vertex="1">
          <mxGeometry x="580" y="2700" width="30" height="60" as="geometry" />
        </mxCell>
        <mxCell id="mDk10lRaXqg-SpX3seUj-62" style="edgeStyle=none;rounded=0;orthogonalLoop=1;jettySize=auto;html=1;exitX=0.5;exitY=0;exitDx=0;exitDy=0;dashed=1;" parent="1" source="mDk10lRaXqg-SpX3seUj-56" target="mDk10lRaXqg-SpX3seUj-56" edge="1">
          <mxGeometry relative="1" as="geometry" />
        </mxCell>
        <mxCell id="acNlBtD0P1ERzzGW3wNC-2" value="jumpuser&lt;br&gt;QSEYWZU7SS9UHN" style="shape=step;perimeter=stepPerimeter;whiteSpace=wrap;html=1;fixedSize=1;" vertex="1" parent="1">
          <mxGeometry x="1555" y="990" width="170" height="80" as="geometry" />
        </mxCell>
      </root>
    </mxGraphModel>
  </diagram>
</mxfile>
